<?xml version="1.0" encoding="UTF-8" standalone="no"?>
<svg
   xmlns:dc="http://purl.org/dc/elements/1.1/"
   xmlns:cc="http://creativecommons.org/ns#"
   xmlns:rdf="http://www.w3.org/1999/02/22-rdf-syntax-ns#"
   xmlns:svg="http://www.w3.org/2000/svg"
   xmlns="http://www.w3.org/2000/svg"
   xmlns:sodipodi="http://sodipodi.sourceforge.net/DTD/sodipodi-0.dtd"
   xmlns:inkscape="http://www.inkscape.org/namespaces/inkscape"
   width="228.60001mm"
   height="340.25418mm"
   viewBox="0 0 228.60001 340.25418"
   version="1.1"
   id="svg8"
   inkscape:version="1.0.1 (3bc2e813f5, 2020-09-07)"
   sodipodi:docname="krank-fist.svg">
  <defs
     id="defs2" />
  <sodipodi:namedview
     id="base"
     pagecolor="#ffffff"
     bordercolor="#666666"
     borderopacity="1.0"
     inkscape:pageopacity="0.0"
     inkscape:pageshadow="2"
     inkscape:zoom="0.7"
     inkscape:cx="303.79709"
     inkscape:cy="554.61395"
     inkscape:document-units="mm"
     inkscape:current-layer="layer1"
     inkscape:document-rotation="0"
     showgrid="false"
     inkscape:window-width="2508"
     inkscape:window-height="1376"
     inkscape:window-x="0"
     inkscape:window-y="0"
     inkscape:window-maximized="1" />
  <metadata
     id="metadata5">
    <rdf:RDF>
      <cc:Work
         rdf:about="">
        <dc:format>image/svg+xml</dc:format>
        <dc:type
           rdf:resource="http://purl.org/dc/dcmitype/StillImage" />
        <dc:title />
      </cc:Work>
    </rdf:RDF>
  </metadata>
  <g
     inkscape:label="Layer 1"
     inkscape:groupmode="layer"
     id="layer1"
     transform="translate(6.302165,26.262856)">
    <path
       id="path914"
       style="fill:#ffffff;fill-opacity:1;stroke-width:0.287893;stroke-linecap:round;stroke-linejoin:round"
       d="m 12.214017,-18.004962 c -0.4366,0.01104 -0.756296,0.467238 -0.655257,0.883667 0.168917,0.617211 0.547474,1.149366 0.862432,1.698939 1.517886,2.436267 3.15411,4.796152 4.774264,7.1648991 7.550172,10.9687245 15.344074,21.7670529 22.847353,32.7682449 1.607159,2.36378 3.210722,4.752795 4.773869,7.154603 0.438217,0.679831 0.895742,1.380006 1.328058,2.06547 1.167947,1.834915 2.302849,3.667191 3.408582,5.552911 2.18132,3.702404 4.184555,7.548642 5.950857,11.486179 1.589538,3.530573 3.023735,7.132844 4.438365,10.748351 0.860152,2.160318 1.711457,4.325771 2.663637,6.44761 0.235378,0.491453 0.513313,0.961117 0.767508,1.44291 0.136446,0.07224 0.248844,0.25159 0.401135,0.25327 0.150993,-0.05958 0.387345,-0.0028 0.44177,-0.194019 0.09184,-0.150479 0.188216,-0.300585 0.155268,-0.48523 0.03949,-1.673259 0.08006,-3.347103 0.03009,-5.020654 -0.04961,-2.899396 -0.210604,-5.81453 -0.30634,-8.700306 -0.01801,-0.655508 -0.03894,-1.311024 -0.04289,-1.966804 1.245433,1.648624 2.372664,3.382462 3.518043,5.101058 2.836346,4.292626 5.559105,8.658603 8.310028,13.006072 1.27223,1.989746 2.526199,3.992126 3.852539,5.946497 0.342919,0.448715 0.629042,0.957313 1.068785,1.320639 0.310801,0.264544 0.826638,0.16655 1.01428,-0.197543 0.317132,-0.530387 0.239334,-1.174073 0.253333,-1.764914 -0.02422,-1.941796 -0.258342,-3.868772 -0.396377,-5.800482 1.388864,1.772923 2.675662,3.622884 3.987233,5.452986 3.24162,4.577112 6.480038,9.15666 9.68524,13.759413 0.827738,1.196869 1.65482,2.394709 2.43972,3.620315 0.09909,0.161131 0.24507,0.388628 0.35491,0.580509 0.124423,0.21124 0.248478,0.423725 0.346339,0.648874 -0.801653,0.280017 -1.656553,0.356545 -2.494163,0.464387 -2.706759,0.298211 -5.408105,0.38309 -8.123066,0.543959 -1.097978,0.08279 -2.215763,0.105458 -3.281145,0.41017 -1.043739,0.330814 -1.934816,0.996175 -2.750249,1.707801 -2.72021,2.35198 -4.993555,5.18432 -6.926532,8.20687 -1.922111,3.04362 -3.516614,6.32037 -4.485645,9.79533 -0.404924,1.50391 -0.322451,3.07639 -0.322363,4.61799 0.03063,2.20649 0.01082,4.42833 0.401447,6.6086 0.402352,2.3076 0.941723,4.5883 1.427599,6.87911 0.253277,1.16619 0.506552,2.33239 0.759827,3.49857 -0.743741,1.9169 -1.494356,3.83163 -2.32415,5.71329 -2.350476,5.37685 -4.799581,10.70991 -7.22903,16.05128 -3.602715,7.86789 -7.160112,15.75754 -10.546493,23.72129 -0.867312,2.06561 -1.753105,4.12533 -2.523365,6.22972 -0.09956,0.34774 -0.300361,0.70732 -0.212993,1.07607 0.103198,0.39822 0.561774,0.51729 0.924497,0.49257 0.879454,-0.0418 1.743001,-0.27187 2.566863,-0.57304 2.02066,-0.84485 3.991631,-1.80298 5.967735,-2.74595 2.130928,-1.03458 4.256903,-2.08271 6.43369,-3.01874 -0.631211,1.42937 -1.482513,2.74475 -2.251336,4.10124 -4.834311,8.29078 -9.708701,16.55803 -14.574007,24.83069 -8.99483,15.27569 -17.999649,30.54554 -27.035638,45.79673 -2.305846,3.89064 -4.617525,7.7779 -6.956845,11.64854 -1.433457,2.4161 -2.881231,4.82614 -4.195696,7.30986 -0.195054,0.40449 -0.442485,0.79777 -0.531923,1.24254 -0.03188,0.21616 0.08067,0.41013 0.24536,0.54112 0.31395,0.22506 0.707543,0.0363 1.004125,-0.12845 1.238077,-0.71075 2.388757,-1.56105 3.560291,-2.37408 4.565831,-3.25393 9.065269,-6.59974 13.57325,-9.93307 10.006872,-7.42408 20.010411,-14.85395 29.877469,-22.46363 9.713336,-7.48121 19.335261,-15.0797 28.994484,-22.6305 2.590789,-2.02119 5.194813,-4.05089 7.805978,-6.02976 0.890317,-0.66943 1.780056,-1.3401 2.691826,-1.98024 0.17463,-0.11675 0.410345,-0.28459 0.615161,-0.4116 0.178282,-0.121 0.369398,-0.22071 0.562028,-0.31652 0.01369,0.68112 -0.202242,1.34072 -0.357603,1.99729 -0.728832,2.6597 -1.580988,5.26968 -2.386248,7.90776 -0.775557,2.53458 -1.570926,5.06481 -2.237732,7.63076 -0.146664,0.65128 -0.352925,1.306 -0.334372,1.97979 0.0065,0.40384 0.379873,0.73753 0.781865,0.69867 0.609081,-0.0589 1.13843,-0.40785 1.667081,-0.68781 1.964454,-1.1565 3.829267,-2.47158 5.706967,-3.76158 5.18094,-3.60363 10.30105,-7.29361 15.42848,-10.9727 5.30748,-3.80868 10.59507,-7.64592 15.96273,-11.36964 2.67124,-1.83611 5.3829,-3.68351 8.26421,-5.20589 2.30549,-1.19558 4.6479,-2.3655 6.70658,-3.96685 1.03007,-0.78475 1.99355,-1.65121 2.97005,-2.50037 0.80215,1.04762 1.53271,2.14713 2.2218,3.2718 1.95773,3.18962 3.77474,6.47179 5.55624,9.77801 2.07463,3.8812 4.07779,7.8254 6.03078,11.77856 0.91675,1.87712 1.83378,3.7384 2.66857,5.65714 0.13936,0.2177 -0.15792,0.0234 -0.2684,0.002 -1.7874,-0.68718 -3.535,-1.47617 -5.34049,-2.11712 -0.81667,-0.27703 -1.63745,-0.59843 -2.50435,-0.66589 -0.41247,-0.0412 -0.90863,0.16044 -0.99479,0.60585 -0.0739,0.50517 0.22022,0.96542 0.42662,1.40424 0.87793,1.62896 1.89974,3.17466 2.89265,4.73461 3.91122,6.02841 7.94341,11.97714 11.90868,17.96992 3.39474,5.1208 6.76711,10.26303 9.80681,15.60526 2.63536,4.61777 5.12071,9.31889 7.6286,14.00638 3.14466,5.88158 6.26251,11.7778 9.47437,17.6231 0.92569,1.6519 1.82846,3.3214 2.88405,4.89532 0.34222,0.45731 0.68073,0.97147 1.21231,1.22389 0.37701,0.17626 0.8592,-0.0804 0.91881,-0.4935 0.0585,-0.44921 -0.0871,-0.89456 -0.1437,-1.33787 -0.76863,-4.23013 -1.63158,-8.44235 -2.47109,-12.65878 -2.67993,-13.30039 -5.42114,-26.58843 -8.20044,-39.86831 -1.31696,-6.2678 -2.62981,-12.5366 -4.00993,-18.79083 -0.20169,-0.90106 -0.40196,-1.80254 -0.6199,-2.69983 1.10693,0.92073 2.06421,2.00273 3.13461,2.96388 0.93979,0.84996 1.87915,1.71445 2.94306,2.40892 0.29769,0.19007 0.6874,0.36731 1.02474,0.16484 0.40594,-0.26965 0.37749,-0.81422 0.35409,-1.24338 -0.12157,-1.45183 -0.43438,-2.87901 -0.71612,-4.30604 -1.06093,-5.13286 -2.32672,-10.22055 -3.61316,-15.3006 -0.84797,-3.30744 -1.70034,-6.6165 -2.6823,-9.8861 -0.0852,-0.30756 -0.17363,-0.62397 -0.23563,-0.93171 1.21198,0.56021 2.35371,1.2631 3.57321,1.80619 0.30282,0.10687 0.66412,-0.0474 0.77763,-0.35228 0.15723,-0.44451 7.1e-4,-0.92179 -0.0777,-1.36734 -0.41537,-1.78411 -0.96532,-3.53333 -1.48439,-5.28917 -2.3384,-7.79452 -4.8507,-15.53547 -7.39882,-23.26352 -0.47083,-1.49583 -0.99354,-2.97954 -1.34367,-4.50984 -0.0154,-0.15252 -0.0878,-0.32967 -0.0416,-0.47055 1.79774,-1.60348 3.63933,-3.15899 5.3737,-4.83223 2.14735,-2.03288 4.22476,-4.1376 6.28345,-6.25972 0.66545,-0.69038 1.35177,-1.36667 2.0042,-2.06585 0.0914,-0.18333 0.17209,-0.36922 0.15403,-0.57893 0.23628,-4.06416 0.47267,-8.12831 0.70915,-12.19246 0.9989,-2.00886 2.03312,-4.00051 2.99826,-6.02589 0.42822,-0.91574 0.8411,-1.88616 0.80363,-2.91816 -0.005,-1.33198 -0.33944,-2.63417 -0.66428,-3.91734 -0.49939,-1.84773 -1.09437,-3.67217 -1.8172,-5.44487 -0.47222,-1.15603 -1.27823,-2.13043 -2.13858,-3.01901 -0.95415,-0.99047 -1.93685,-1.96853 -2.72163,-3.10336 -0.18344,-0.28905 -0.15544,-0.6536 -0.20823,-0.98108 -0.21794,-2.44732 -0.14878,-4.90711 -0.18401,-7.36092 0.0237,-0.43284 -0.30254,-0.76336 -0.48191,-1.12994 -1.09382,-1.9224 -2.22618,-3.82342 -3.44121,-5.67204 -0.67728,-1.009418 -1.34075,-2.030221 -2.07396,-3.000337 -0.54736,-0.728921 -1.25828,-1.349978 -2.11333,-1.687189 -1.31452,-0.535136 -2.71918,-0.790541 -4.07379,-1.198719 -0.1206,-0.02143 -0.20874,-0.09593 -0.18716,-0.228796 0.003,-0.503803 -0.0646,-1.006901 -0.23186,-1.483783 -0.48976,-1.456243 -1.2307,-2.811661 -1.97787,-4.148704 -1.68438,-2.939436 -3.58463,-5.754327 -5.65203,-8.437493 -1.07724,-1.378196 -2.18909,-2.738649 -3.45176,-3.952693 -0.61927,-0.552794 -1.24762,-1.127127 -2.00659,-1.481563 -0.89555,-0.286565 -1.83528,-0.402325 -2.76192,-0.54519 -1.75663,-0.250357 -3.52546,-0.396282 -5.29289,-0.54415 -0.56322,-0.04681 -1.12728,-0.200766 -1.5802,-0.551982 -0.91361,-0.671628 -1.76693,-1.418177 -2.6707,-2.10367 -2.42283,-1.886754 -4.96138,-3.622156 -7.58409,-5.218779 -0.57554,-0.349552 -1.14158,-0.723723 -1.72302,-1.057963 -0.20491,-0.04609 -0.40978,-0.08685 -0.61399,-0.01425 -4.61323,0.890603 -9.21881,1.820145 -13.81502,2.794645 -2.7266,0.562462 -5.46089,1.110745 -8.22679,1.442725 -0.51621,0.04603 -1.03568,0.116539 -1.55443,0.07545 -4.10713,-4.923425 -8.17261,-9.881698 -12.31901,-14.772275 -2.33601,-2.756458 -4.65971,-5.525688 -7.12181,-8.171569 -2.84746,-3.07314 -5.758358,-6.089948 -8.787998,-8.984485 -0.821563,-0.759857 -1.622777,-1.552352 -2.539339,-2.199076 -0.271536,-0.205727 -0.712306,-0.297133 -0.957823,-0.0052 -0.293725,0.326916 -0.178501,0.807505 -0.13929,1.203095 0.288679,1.730822 0.787172,3.417083 1.216755,5.116128 0.166579,0.648076 0.331311,1.296684 0.490149,1.946707 -1.446771,-1.466168 -2.776353,-3.041992 -4.184359,-4.544677 -3.754091,-4.05429 -7.611594,-8.011736 -11.50988,-11.927297 -2.691892,-2.690532 -5.391711,-5.375333 -8.189259,-7.956487 -0.677971,-0.604999 -1.336077,-1.241176 -2.086409,-1.757254 -0.322723,-0.2546 -0.850276,-0.203604 -1.070166,0.159224 -0.257156,0.436525 -0.12224,0.967941 -0.06902,1.440564 0.31283,1.911111 0.816763,3.785666 1.116877,5.699225 C 65.814747,22.990619 64.16022,21.549693 62.488233,20.130407 57.991044,16.278532 53.506135,12.413041 48.978725,8.5965401 43.418834,3.9105259 37.844082,-0.75903038 32.177612,-5.3162539 30.633684,-6.5495308 29.082805,-7.7771712 27.445754,-8.8860267 24.150122,-11.150381 20.796497,-13.330596 17.394503,-15.431653 c -1.328568,-0.806184 -2.662966,-1.61209 -4.070861,-2.273691 -0.350392,-0.149436 -0.71977,-0.320711 -1.109625,-0.299618 z m 4.731494,5.022432 c 0.73575,0.264569 1.395315,0.700229 2.065805,1.095587 2.451388,1.520893 4.807431,3.1895033 7.142729,4.8814955 2.264761,1.6493053 4.521379,3.3633296 6.685586,5.1085458 3.856289,3.1504051 7.67923,6.3794198 11.494749,9.5941072 5.753219,4.8703365 11.506549,9.7430275 17.19363,14.6945215 2.631588,2.302092 5.22487,4.648525 7.894201,6.907109 0.443476,0.34466 0.85679,0.751028 1.37531,0.981626 0.361457,0.155987 0.818692,-0.09495 0.85731,-0.492477 0.0071,-0.486648 -0.165975,-0.955128 -0.272438,-1.425387 -0.514104,-1.996059 -1.28146,-3.931627 -1.557939,-5.984497 -0.06301,-0.253283 0.166585,0.05207 0.261195,0.103778 1.797534,1.589825 3.493828,3.289593 5.193619,4.982276 3.971595,3.980659 7.866333,8.038158 11.686096,12.164663 1.91031,2.05781 3.769987,4.161597 5.605933,6.285783 1.158769,1.305472 2.281277,2.646666 3.51822,3.879916 0.269568,0.248978 0.606984,0.583234 1.009367,0.450543 0.30163,-0.09106 0.473324,-0.43547 0.400087,-0.739529 -0.417084,-2.379911 -0.99995,-4.728102 -1.40067,-7.111079 -0.0618,-0.425088 -0.128637,-0.852374 -0.121957,-1.283126 0.849128,0.616421 1.585614,1.372346 2.332961,2.105281 2.620205,2.642386 5.093835,5.425152 7.550735,8.21853 4.32221,4.936421 8.51296,9.986476 12.62422,15.099474 1.08703,1.330291 2.15776,2.675292 3.29072,3.966972 0.51678,0.591479 1.35063,0.714785 2.09269,0.762424 1.61726,0.06493 3.22256,-0.21857 4.80769,-0.505333 2.09791,-0.419005 4.17375,-0.898078 6.26981,-1.325526 3.47504,-0.71646 6.96002,-1.429726 10.46612,-2.005912 0.62201,-0.09128 1.2437,-0.209142 1.87304,-0.231198 0.74053,0.298085 1.40712,0.750432 2.08609,1.164942 2.25117,1.43692 4.45669,3.013496 6.58608,4.654634 1.15879,0.904444 2.31104,1.817233 3.46713,2.725121 0.1999,0.08227 0.40381,0.139883 0.62177,0.111271 1.44494,-0.01656 2.89373,-0.03136 4.33216,0.130141 1.31434,0.144483 2.64103,0.325442 3.89153,0.771964 0.68031,0.274013 1.23863,0.771803 1.79075,1.241128 1.09065,0.941653 1.91104,2.139522 2.76501,3.287755 1.82553,2.534253 3.55929,5.135796 5.18002,7.805828 0.80002,1.292553 1.46818,2.658705 2.16685,4.006926 -0.23285,0.679845 -0.5554,1.335852 -0.68615,2.046256 -0.0935,0.463354 0.1267,0.97409 0.56213,1.179388 0.62513,0.299699 1.33729,0.314195 2.00608,0.425297 0.17057,0.0276 0.42655,0.06632 0.6286,0.103743 0.75423,0.133657 1.52215,0.305967 2.23748,0.504481 0.54768,0.166669 1.11835,0.305739 1.61323,0.601519 0.56407,0.546532 1.00048,1.208255 1.46085,1.840831 1.57981,2.251677 2.98711,4.618367 4.31703,7.024567 0.11177,0.21673 0.25894,0.4244 0.34857,0.64679 -0.0329,2.84698 -0.0656,5.69398 -0.0979,8.54098 0.0802,0.20916 0.14629,0.42754 0.33598,0.56528 1.65745,1.72029 3.4139,3.36308 4.83838,5.29017 0.42399,0.58713 0.6182,1.29792 0.87204,1.96706 0.0785,0.22018 0.16823,0.50051 0.24521,0.72218 0.56627,1.76031 1.10266,3.53472 1.48374,5.34548 0.0778,0.3628 0.15127,0.74533 0.0133,1.10426 -0.50847,1.60317 -1.35084,3.06977 -2.08556,4.57488 -0.49166,1.01765 -1.00434,2.02897 -1.40674,3.08615 -0.23341,0.90086 -0.29605,1.83518 -0.40521,2.75675 -0.25447,2.42702 -0.36364,4.86562 -0.54512,7.29845 -0.0652,0.77012 -0.12373,1.58662 -0.25918,2.36579 -0.0674,0.4265 -0.19763,0.85748 -0.50172,1.17781 -1.00434,1.20609 -2.14637,2.28813 -3.26994,3.38108 -3.30107,3.14928 -6.73337,6.15981 -10.25407,9.06091 -0.0776,0.19528 -0.25625,0.37954 -0.15704,0.59924 2.28738,6.90597 4.60211,13.80352 6.75728,20.75231 0.88661,2.87421 1.78551,5.74635 2.55217,8.6554 0.078,0.38765 0.23503,0.77368 0.2005,1.17409 -0.65138,-0.2166 -1.20745,-0.64106 -1.77588,-1.01417 -0.58463,-0.38477 -1.1564,-0.82579 -1.83148,-1.03863 -0.365,-0.12441 -0.83339,0.0993 -0.86571,0.50748 -0.0122,0.42459 0.14382,0.83608 0.22657,1.24936 0.88013,3.53286 1.94149,7.01485 2.88327,10.53119 1.4519,5.34585 2.85902,10.702 4.1623,16.08902 0.24982,1.0587 0.50282,2.10133 0.71395,3.17556 0.0866,0.25578 -0.01,0.20575 -0.16331,0.0507 -2.19215,-1.87419 -4.16696,-3.98976 -6.40424,-5.81225 -0.23357,-0.16848 -0.49484,-0.42662 -0.80387,-0.35597 -0.1596,0.0688 -0.34618,0.10637 -0.41454,0.28788 -0.15913,0.35114 -0.0367,0.7521 -0.003,1.11939 0.34981,2.22509 0.93215,4.40409 1.41238,6.60272 2.15583,9.54613 4.21881,19.11312 6.26272,28.68382 1.96923,9.24552 3.91778,18.50667 5.78929,27.76556 0.47396,2.39246 0.96386,4.78758 1.38171,7.17989 0.041,0.24783 0.0859,0.49511 0.11897,0.74417 -0.64423,-0.70724 -1.02444,-1.60084 -1.48684,-2.42756 -5.45138,-10.31126 -10.61087,-20.78868 -16.62041,-30.79379 -4.59535,-7.67789 -9.65682,-15.06122 -14.65284,-22.48046 -1.74408,-2.61681 -3.50562,-5.22403 -5.14078,-7.91097 -0.22047,-0.3748 -0.44848,-0.74708 -0.62959,-1.14296 0.61952,0.10969 1.18749,0.40136 1.77147,0.62374 2.12722,0.87284 4.16285,1.95506 6.30791,2.78533 0.23597,0.0935 0.5649,0.17857 0.74473,-0.0576 0.16369,-0.0979 0.2416,-0.27845 0.21897,-0.46577 -0.0936,-0.5157 -0.3471,-0.98678 -0.54077,-1.47023 -1.23236,-2.77118 -2.5737,-5.49222 -3.90618,-8.21618 -2.34771,-4.76065 -4.73662,-9.50198 -7.2289,-14.1889 -1.67297,-3.16841 -3.55896,-6.21715 -5.44529,-9.2613 -0.95026,-1.49227 -1.86871,-3.00789 -2.90659,-4.44173 -0.21226,-0.25635 -0.41354,-0.52988 -0.64044,-0.76914 -0.14778,-0.0394 -0.29114,-0.21751 -0.44229,-0.15157 -0.18044,0.0747 -0.38423,0.12405 -0.4675,0.3218 -0.39081,0.58067 -0.81978,1.134 -1.29899,1.6447 -0.91718,0.99675 -1.84059,1.99563 -2.87409,2.87408 -1.23754,1.00572 -2.69279,1.68725 -4.10807,2.4007 -1.3561,0.68035 -2.7439,1.29623 -4.09356,1.98915 -2.15792,1.18019 -4.17018,2.60335 -6.17016,4.02918 -3.13182,2.28316 -6.26101,4.57011 -9.40163,6.84132 -6.76736,4.89545 -13.54491,9.77722 -20.36047,14.60535 -1.22818,0.85842 -2.441373,1.74039 -3.69749,2.55747 -0.46518,0.28013 -0.927439,0.56985 -1.42511,0.78972 0.0661,-0.66082 0.302697,-1.28946 0.468276,-1.92942 1.22655,-4.23819 2.624674,-8.43377 3.911884,-12.66581 0.17807,-0.61892 0.39391,-1.23032 0.52889,-1.85967 0.0483,-0.48877 -0.38993,-0.82796 -0.7513,-1.07173 -0.6489,-0.40941 -1.372251,-0.75243 -2.144435,-0.82625 -0.694933,-0.0119 -1.305745,0.38472 -1.889659,0.71347 -1.609738,0.98979 -3.113138,2.13964 -4.627036,3.26745 -4.905113,3.71867 -9.71527,7.56055 -14.560555,11.35609 -13.656003,10.72159 -27.336729,21.41318 -41.124637,31.96656 -5.325972,4.06895 -10.667113,8.11774 -16.066979,12.08162 -1.46592,1.05492 -2.916058,2.13995 -4.471262,3.06194 -0.09157,0.0256 -0.398684,0.28088 -0.284951,0.0796 0.623351,-1.2564 1.391052,-2.43355 2.094147,-3.64556 4.18545,-7.0734 8.333452,-14.1691 12.518018,-21.2431 10.302028,-17.45297 20.619151,-34.89643 30.957935,-52.32855 1.696908,-2.8471 3.377909,-5.71261 5.091258,-8.5401 0.732594,-1.19688 1.470305,-2.40005 2.026827,-3.69128 0.146389,-0.33275 0.25545,-0.7349 0.0452,-1.06714 -0.323416,-0.56625 -0.732589,-1.09132 -1.218531,-1.52704 -0.446106,-0.39055 -1.088771,-0.43528 -1.636717,-0.26664 -1.034934,0.31058 -1.975779,0.85939 -2.932581,1.34936 -2.694249,1.44269 -5.364094,2.94231 -8.158776,4.18578 -0.457505,0.1878 -0.913125,0.4021 -1.401297,0.49497 -0.0039,-0.44583 0.192961,-0.86505 0.320199,-1.2855 0.353544,-1.00628 0.761743,-1.99829 1.163404,-2.96895 1.709608,-4.08394 3.53541,-8.11079 5.350949,-12.14205 4.058865,-8.97759 8.226216,-17.907 12.154683,-26.94307 0.866667,-2.01525 1.737905,-4.03146 2.445809,-6.10938 0.114096,-0.31532 0.274822,-0.65151 0.1529,-0.98943 -0.594485,-2.46532 -1.223248,-4.94428 -1.762281,-7.39374 -0.296865,-1.36224 -0.568325,-2.7306 -0.777214,-4.10931 -0.02799,-0.20757 -0.07221,-0.49338 -0.09994,-0.7044 -0.198726,-1.53915 -0.345482,-3.08811 -0.371348,-4.6405 -0.0082,-1.34184 0.351454,-2.64754 0.692129,-3.93418 0.288859,-0.99454 0.641572,-1.96922 1.02198,-2.93207 0.106703,-0.25634 0.23342,-0.58058 0.354533,-0.86049 0.703419,-1.65742 1.487009,-3.28479 2.416874,-4.82805 0.124817,-0.20159 0.30349,-0.48116 0.433586,-0.68001 1.474393,-2.22169 3.1804,-4.29781 5.128794,-6.12085 0.825897,-0.744078 1.681538,-1.491918 2.699388,-1.96145 0.534421,-0.226682 1.129757,-0.214392 1.696405,-0.293063 2.951067,-0.28751 5.917168,-0.350385 8.874813,-0.539337 1.189661,-0.09834 2.443861,-0.154464 3.499365,-0.776441 0.609579,-0.356434 1.211603,-0.77655 1.626393,-1.357845 0.27664,-0.381831 0.44338,-0.873643 0.2981,-1.340109 -0.18147,-0.600422 -0.46122,-1.169916 -0.77117,-1.713883 -1.084938,-1.772418 -2.279185,-3.474977 -3.465133,-5.180555 -1.92415,-2.727754 -3.880416,-5.425099 -5.809535,-8.148236 -2.258851,-3.156622 -4.45453,-6.358561 -6.783411,-9.464571 -1.374135,-1.824564 -2.74387,-3.655806 -4.229161,-5.392264 -0.26058,-0.270587 -0.487217,-0.617313 -0.848963,-0.757518 -0.133573,-0.03077 -0.32284,-0.03307 -0.431652,0.05121 -0.124746,0.15508 -0.329867,0.279498 -0.299313,0.506505 0.06064,0.980879 0.258686,1.947643 0.421974,2.915346 0.20016,1.117123 0.409135,2.232922 0.583131,3.354556 0.04162,0.297162 0.09706,0.660885 0.123584,0.986409 0.01529,0.196192 0.0338,0.394399 0.01129,0.590757 -0.444336,-0.317281 -0.727088,-0.804662 -1.038468,-1.242867 -1.20505,-1.84789 -2.244135,-3.796644 -3.376142,-5.688925 -2.266677,-3.831426 -4.603167,-7.628906 -7.220188,-11.233404 -1.805908,-2.493989 -3.643839,-4.967211 -5.589968,-7.354181 -0.369724,-0.42181 -0.700148,-0.893109 -1.151612,-1.232511 -0.154861,-0.08741 -0.355299,-0.128628 -0.505296,-0.0094 -0.157716,0.05068 -0.278829,0.139798 -0.312018,0.310311 -0.104005,0.273632 -0.0035,0.577821 0.01188,0.861492 0.303176,2.31096 0.799796,4.586229 1.16835,6.87882 0.127696,0.79847 0.25278,1.564356 0.31718,2.374312 0.01339,0.18923 0.02218,0.379114 0.01519,0.568804 C 61.46614,56.148324 61.374708,55.874234 61.225753,55.660073 59.920233,53.396409 58.71141,51.078439 57.500068,48.763467 54.914223,43.754757 52.316867,38.744432 49.36531,33.938316 45.780931,28.090696 41.82767,22.481863 37.895036,16.866195 32.971296,9.8636853 28.026059,2.8759707 23.011636,-4.0619617 c -1.710489,-2.3774746 -3.485499,-4.7103259 -5.108952,-7.1490873 -0.364507,-0.570388 -0.755583,-1.136609 -0.991796,-1.775098 l 0.01395,-5.17e-4 z" />
    <path
       id="path856"
       style="fill:#f5bd5c;fill-opacity:1;stroke-width:0.407143;stroke-linecap:round;stroke-linejoin:round"
       d="m 168.4231,159.54304 c -1.60779,0.0325 -3.22548,-0.0125 -4.82179,0.21345 -1.33826,0.19627 -2.55363,0.83373 -3.7405,1.44743 -1.61337,0.8918 -3.17428,1.90242 -4.55112,3.13366 -0.42169,0.41208 -0.90138,0.8344 -1.06868,1.42059 -0.14573,0.69428 0.12967,1.38441 0.34388,2.03429 0.79613,2.14425 1.80433,4.20074 2.7228,6.29251 2.23348,5.05546 4.32467,10.1986 6.36807,15.34814 1.66074,4.21178 3.30449,8.43165 4.8115,12.70129 0.29919,0.86386 0.60254,1.73304 0.8531,2.60898 -1.13411,-0.57169 -2.1323,-1.36453 -3.20474,-2.03662 -0.45733,-0.26087 -0.92207,-0.5946 -1.46629,-0.61386 -0.39884,-0.004 -0.7061,0.39494 -0.63564,0.78031 0.082,0.73492 0.42299,1.40692 0.69972,2.08323 1.21621,2.74198 2.54301,5.43304 3.83611,8.13916 2.32574,4.8181 4.66463,9.6303 6.91981,14.48205 1.47661,3.18832 2.95637,6.39666 4.31215,9.64638 0.35931,0.91439 0.7729,1.8161 0.99952,2.77532 0.0126,0.13306 -0.24696,-0.0573 -0.33997,-0.0626 -1.1925,-0.47845 -2.29219,-1.17838 -3.52372,-1.56025 -0.20859,-0.0524 -0.49577,-0.0385 -0.57962,0.19756 -0.0814,0.14199 -0.23283,0.26809 -0.16446,0.44722 0.15681,0.48352 0.44397,0.91533 0.67185,1.36822 1.26614,2.32941 2.63991,4.59787 3.93541,6.91062 2.47777,4.46608 4.84365,8.99326 7.17595,13.53671 2.35876,4.62769 4.65598,9.28798 7.12108,13.86059 0.2499,0.43162 0.45926,0.89489 0.77219,1.28503 0.11035,0.12409 0.29752,0.11695 0.44418,0.17314 0.13954,-0.11428 0.33988,-0.17788 0.44246,-0.32309 0.14457,-0.38582 0.0107,-0.80453 -0.0275,-1.19906 -0.38254,-2.28846 -0.89752,-4.55226 -1.38996,-6.81876 -1.78457,-7.99922 -3.70494,-15.96736 -5.66005,-23.92633 -1.85878,-7.52364 -3.74706,-15.04059 -5.77742,-22.52005 -0.50966,-1.88724 -1.05931,-3.78762 -1.59284,-5.65295 -0.55094,-1.99331 -1.11408,-3.98599 -1.53818,-6.01101 -0.0511,-0.15996 -0.0289,-0.21837 0.11451,-0.0863 1.64732,1.15216 3.19384,2.44184 4.71165,3.75791 0.78404,0.68021 1.55686,1.38555 2.43509,1.94399 0.29522,0.2123 0.76943,0.16534 0.94051,-0.18125 0.20651,-0.42495 0.0648,-0.91442 0.009,-1.35911 -0.33888,-1.83927 -0.84133,-3.64331 -1.31554,-5.45103 -0.62664,-2.31083 -1.24261,-4.62644 -2.01147,-6.8952 -1.75966,-5.27926 -3.93713,-10.4087 -6.25221,-15.46539 -0.93358,-2.05082 -1.9295,-4.07554 -2.76262,-6.17033 -0.0916,-0.24363 -0.18155,-0.48807 -0.25487,-0.73793 0.45514,0.26751 0.90194,0.59649 1.295,0.88573 1.51181,1.11007 2.89933,2.38348 4.45516,3.43399 0.29586,0.185 0.64135,0.45574 1.0068,0.31464 0.39433,-0.13557 0.47487,-0.60565 0.43619,-0.97102 -0.0896,-1.05656 -0.51843,-2.04203 -0.86516,-3.03265 -1.25326,-3.3574 -2.6284,-6.66797 -4.02823,-9.96647 -1.08606,-2.52313 -2.17048,-5.05075 -3.4413,-7.48794 -0.41376,-0.8153 -0.82752,-1.63061 -1.24127,-2.44591 -0.17431,-0.12021 -0.31819,-0.33446 -0.55584,-0.28923 -1.67436,0.0141 -3.34875,0.0281 -5.02314,0.0422 z" />
    <path
       id="path852"
       style="fill:#f5bd5c;fill-opacity:1;stroke-width:0.0719733;stroke-linecap:round;stroke-linejoin:round"
       d="m 27.85596,-2.738009 c -0.39256,0.02914 -0.63815,0.465534 -0.5157,0.826704 0.19407,0.617902 0.60587,1.136303 0.95737,1.671346 1.61901,2.29071 3.34391,4.504082 5.03565,6.741049 4.01513,5.272465 7.96227,10.583425 11.71337,16.037802 1.84057,2.650883 3.59609,5.357481 5.45859,7.99342 0.30023,0.381046 0.55288,0.826915 0.96581,1.098124 0.25808,0.143464 0.60492,0.06092 0.77102,-0.18188 0.23432,-0.360245 0.0417,-0.799899 -0.0118,-1.185684 -0.0437,-0.216944 -0.0921,-0.432966 -0.13602,-0.649884 0.96202,1.172892 1.83951,2.41226 2.78971,3.594794 1.68537,2.130534 3.42786,4.214734 5.11522,6.343797 3.07541,3.846245 6.11386,7.724568 9.32286,11.46134 0.58846,0.661069 1.14112,1.361292 1.80464,1.950065 0.28088,0.2586 0.7552,0.360645 1.05566,0.07932 0.35999,-0.337195 0.24942,-0.878052 0.16878,-1.307828 -0.26339,-1.171621 -0.64873,-2.311504 -0.97261,-3.467133 -0.0681,-0.23282 -0.13721,-0.465305 -0.20272,-0.698858 2.05943,2.321499 3.99441,4.749622 5.92674,7.176822 2.18779,2.758797 4.33126,5.553655 6.3695,8.42526 1.44481,2.042316 2.89851,4.079111 4.43505,6.053892 3.57624,4.623475 7.14584,9.253461 10.61585,13.957871 1.23122,1.662049 2.44491,3.361508 3.68718,5.024848 0.53227,0.681392 1.04072,1.389293 1.65712,1.998168 0.192,0.184965 0.44166,0.340405 0.71929,0.286932 0.39481,-0.09612 0.64794,-0.45739 0.92239,-0.731612 0.61489,-0.706562 1.19978,-1.468848 1.54165,-2.348783 0.36997,-1.064808 0.39002,-2.20572 0.56729,-3.309893 0.19206,-1.367361 0.45831,-2.767623 1.20044,-3.956476 0.54592,-0.964461 1.31141,-1.775285 2.10125,-2.542791 0.97631,-0.980837 2.101,-1.806641 3.3171,-2.465522 1.02307,-0.584116 2.11445,-1.04698 3.10738,-1.682957 0.15425,-0.116715 0.30763,-0.235585 0.36253,-0.430135 0.11337,-0.137012 0.0706,-0.290312 0.0219,-0.444231 -0.5057,-0.959416 -1.19195,-1.806607 -1.82904,-2.67965 -2.5396,-3.372482 -5.1762,-6.670862 -7.84039,-9.945435 -1.56142,-1.899266 -3.11658,-3.805797 -4.76372,-5.631975 -0.36817,-0.376841 -0.72694,-0.826704 -1.25063,-0.98311 -0.4345,-0.128426 -0.8681,0.2137 -0.96438,0.631216 -0.11661,0.609586 -0.0398,1.236646 -0.0147,1.851969 0.10988,1.811904 0.4381,3.607173 0.52022,5.419176 -1.17554,-1.149637 -2.18628,-2.450801 -3.25054,-3.700549 C 93.85278,52.17901 89.43466,46.760837 84.80435,41.523997 83.0713,39.573183 81.33736,37.619321 79.48371,35.78126 c -0.44706,-0.414838 -0.87177,-0.876013 -1.41197,-1.170865 -0.25559,-0.133786 -0.60608,-0.08326 -0.77372,0.162171 -0.21826,0.255246 -0.1414,0.628439 -0.14568,0.938795 0.0967,2.255344 1.06053,4.366111 1.19975,6.615579 C 76.04125,40.048826 73.97742,37.538106 71.73782,35.192254 69.28326,32.61113 66.75802,30.097617 64.19685,27.622485 59.81829,23.395844 55.23319,19.387493 50.51911,15.539928 47.2617,12.880367 44.05196,10.163379 40.8497,7.437887 37.52535,4.637286 34.19906,1.838237 30.82787,-0.906079 30.04968,-1.505016 29.2853,-2.137294 28.41715,-2.603648 28.24263,-2.687978 28.05258,-2.753969 27.85594,-2.738009 Z" />
    <path
       id="path855-3"
       style="fill:#9d0706;fill-opacity:1;stroke-width:0.407143;stroke-linecap:round;stroke-linejoin:round"
       d="m 7.7285156,-21.865234 c -0.8240823,0.45427 -0.1003242,1.439932 0.1997199,2.008796 2.6267945,4.02088 5.4031755,7.948119 8.0931655,11.9263803 5.136586,7.53237251 10.353893,15.0091732 15.699302,22.3949017 5.898849,8.383463 11.807264,16.776531 17.102539,25.559584 3.136177,5.38021 5.691125,11.088823 8.185085,16.808814 1.048336,2.567854 2.22105,5.069075 2.903782,7.766367 0.254237,1.664276 1.01542,3.212194 1.541016,4.804688 1.062381,2.726182 2.027161,5.503845 3.328125,8.126953 0.289496,0.515697 1.090179,0.233816 1.062121,-0.320641 0.07902,-6.07837 -0.229855,-12.154468 -0.317528,-18.230908 0.05184,-0.40724 -0.08845,-1.35351 0.09879,-1.470827 2.246839,2.825719 3.843082,6.09271 5.901727,9.050245 2.761203,4.136728 5.015031,8.59395 7.944043,12.62266 0.992401,1.333957 1.876318,2.813485 3.179986,3.867049 0.598044,0.332917 1.121915,-0.377145 0.93164,-0.943359 -0.08291,-2.26213 -0.445045,-4.5182 -0.398437,-6.78125 0.87974,0.529203 1.438003,1.52532 2.085272,2.324659 2.935488,4.288046 5.947413,8.534717 8.963176,12.772423 0.81997,1.256361 1.756617,2.496736 2.357802,3.856043 -1.068875,0.687218 -2.480448,0.59067 -3.663708,0.688749 -2.561234,0.119285 -5.129249,-0.262822 -7.683948,-0.02078 -1.701407,0.334446 -3.040835,1.560536 -4.410052,2.543392 -5.388224,4.343236 -8.749217,10.650476 -11.091332,17.049186 -0.910242,2.6462 -0.866325,5.49419 -0.885041,8.25796 0.180327,4.27605 1.598939,8.36792 2.18739,12.58863 0.179401,1.18804 0.458281,2.44182 -0.07685,3.58314 -1.868027,5.03958 -4.190621,9.89637 -6.371703,14.80481 -5.377285,11.82819 -10.969206,23.57191 -15.718605,35.67272 -0.272976,0.9347 -0.863178,1.86111 -0.760759,2.85368 0.473213,0.79519 1.536811,0.29784 2.244141,0.17383 3.950644,-1.12959 7.662951,-2.92443 11.351563,-4.70313 0.280511,-0.0415 1.352799,-0.72132 1.044452,-0.0962 -2.443678,4.7616 -5.241984,9.33143 -7.927127,13.95875 -5.537872,9.56425 -11.551549,18.84444 -17.009801,28.45529 -3.367521,5.69896 -6.811512,11.35157 -10.011558,17.14877 -6.026131,10.45396 -12.417258,20.72735 -18.8125964,30.96955 -1.2167333,2.06019 -2.5698703,4.05152 -3.6271201,6.19864 -0.091391,0.58449 0.5506919,0.98305 1.037113,0.63969 2.8827631,-1.80808 5.5576745,-3.93063 8.3301755,-5.90158 21.20452,-15.48275 42.340455,-31.08123 62.854563,-47.47502 6.160673,-4.84273 12.28766,-9.7167 18.539867,-14.44083 0.311552,-0.14119 1.053029,-0.91578 1.132478,-0.57286 -0.568433,2.8974 -1.66433,5.66168 -2.489362,8.49196 -1.074061,3.60822 -2.234244,7.20684 -2.949756,10.90707 -0.241753,0.62903 0.535277,1.26034 1.072778,0.80387 3.725472,-2.13924 7.228336,-4.64543 10.769196,-7.07278 6.83019,-4.85727 13.60294,-9.79497 20.42148,-14.66993 4.23341,-3.01218 8.40488,-6.11109 12.62956,-9.13405 2.28786,-1.58476 4.86605,-2.90198 7.42702,-4.0837 2.42354,-1.19591 4.70231,-2.65818 6.83036,-4.32192 2.13283,2.37176 3.66709,5.19687 5.26139,7.93956 3.08769,5.60505 6.03914,11.26715 8.72887,17.04252 0.0318,0.31207 0.77304,1.17681 0.1368,1.09 -2.72889,-0.56946 -5.26514,-1.80222 -7.94878,-2.5444 -0.55142,-0.17668 -1.31273,-0.49703 -1.63141,0.20279 0.0793,1.01856 0.84597,1.84466 1.29776,2.73224 7.79477,12.71298 16.70348,24.70934 24.37998,37.49823 6.16183,10.35489 11.51892,21.15732 17.25613,31.74667 2.48144,4.50787 4.76964,9.13764 7.60632,13.43787 0.27956,0.47104 0.78276,1.08583 1.35434,0.61624 0.4283,-0.98663 0.0214,-2.11171 -0.0485,-3.14188 -1.11204,-7.19719 -2.67792,-14.29194 -3.771,-21.49009 -1.39183,-7.95887 -3.07542,-15.8643 -4.62384,-23.79414 -1.71956,-8.64907 -3.49379,-17.29064 -5.62133,-25.84971 -0.23416,-1.12799 -0.50117,-2.26754 -0.49201,-3.42535 1.99662,1.6077 3.60771,3.68483 5.76563,5.08789 0.64302,0.33782 1.11606,-0.45175 0.93356,-1.02192 -0.31724,-2.8653 -1.15123,-5.64811 -1.47881,-8.51518 -0.98325,-5.45243 -2.36171,-10.82666 -3.77586,-16.18105 -0.54649,-2.21235 -1.40273,-4.38762 -1.52726,-6.67909 0.0882,-0.44598 0.86592,0.35332 1.18903,0.40705 0.97709,0.50807 1.86636,1.32657 2.97184,1.50776 0.52378,-0.27066 0.59305,-0.76885 0.35495,-1.26986 -1.44284,-4.83231 -3.16832,-9.57559 -4.6323,-14.40201 -2.18068,-7.12409 -4.3989,-14.24512 -6.94972,-21.24446 -0.0892,-0.99623 0.92389,-1.62344 1.51784,-2.28127 3.77835,-3.39239 7.5765,-6.7986 10.8772,-10.66958 1.04309,-1.41666 0.98142,-3.28814 1.24837,-4.95429 0.3721,-3.4055 0.68157,-6.81829 1.02311,-10.22735 1.26981,-2.32361 2.95841,-4.50743 3.55298,-7.13207 0.41706,-2.38824 -0.58614,-4.71014 -1.23664,-6.96239 -0.8668,-2.56096 -1.66318,-5.32834 -3.75658,-7.18953 -0.8386,-0.81946 -1.69653,-1.61881 -2.54414,-2.4289 -0.0395,-2.77008 -0.0133,-5.54889 -0.0937,-8.31355 -1.60262,-3.06453 -3.30863,-6.10623 -5.27743,-8.961845 -1.17279,-1.566246 -2.37808,-3.470927 -4.45486,-3.854988 -0.97719,-0.175121 -2.04373,-0.476489 -2.53733,-1.430168 -1.6036,-2.679652 -2.91642,-5.527374 -4.62478,-8.14811 -2.30083,-3.566813 -4.71839,-7.14324 -7.88994,-10.001437 -1.36635,-1.379654 -3.42317,-1.390458 -5.21875,-1.670761 -1.87808,-0.211226 -3.76088,-0.381498 -5.64153,-0.57227 -3.74542,-2.959719 -7.42661,-6.163039 -11.84765,-8.080079 -1.15229,-0.555918 -2.43854,-0.455258 -3.65443,-0.211405 -5.27527,0.827595 -10.55403,1.979692 -15.72643,3.121562 -1.82055,0.36096 -3.66885,0.580416 -5.52735,0.521484 -5.50677,-6.764951 -10.88226,-13.648545 -16.72931,-20.125902 -5.04647,-5.3507 -10.19488,-10.613102 -15.580318,-15.623542 -0.508631,-0.350953 -0.979794,-1.151989 -1.690368,-0.86579 -0.562345,0.669629 -0.09192,1.600952 -0.04232,2.371381 0.260212,1.328246 0.589167,2.643197 0.804041,3.980181 C 87.030519,34.368515 83.605974,30.90003 80.109429,27.514322 75.468698,23.006598 70.920528,18.395126 66.086897,14.092299 c -0.543585,-0.385983 -1.213456,-1.257096 -1.926741,-0.74269 -0.413433,0.825516 0.125187,1.765156 0.228501,2.617031 0.365769,1.646882 1.044423,3.257915 1.07814,4.959141 C 61.186213,17.689714 57.179417,14.108611 53.082039,10.646718 44.785861,3.5873768 36.536476,-3.5560381 27.70732,-9.9501813 22.789195,-13.463984 17.574305,-16.534597 12.403818,-19.656739 c -1.406332,-0.777156 -2.7563135,-1.71578 -4.2866305,-2.22998 -0.1315722,-0.03203 -0.259312,-0.0078 -0.3886719,0.02148 z m 4.9257814,4.800781 c 2.39887,1.119996 4.597936,2.632456 6.854923,4.011009 4.539875,2.90333 9.062052,5.862898 13.193002,9.3366318 10.899231,8.8353636 21.543125,17.9797332 32.17828,27.1295522 1.020806,0.830617 1.986804,1.746057 3.078482,2.479838 0.573763,-0.217869 0.93321,-0.605656 0.649468,-1.220582 -0.394958,-2.250103 -1.139243,-4.452674 -1.362358,-6.697387 2.585799,2.000435 4.823591,4.409523 7.180342,6.667578 6.146032,6.091209 12.196655,12.288698 17.92461,18.775453 0.555158,0.518233 1.016349,1.219208 1.744657,1.500329 0.631571,-0.01927 0.758224,-0.644111 0.566406,-1.142578 -0.574903,-2.670711 -1.509854,-5.25323 -2.042968,-7.931641 3.714947,2.994582 6.933007,6.547834 10.161179,10.047509 7.03398,7.743788 13.62534,15.929793 20.34663,23.970069 0.77469,0.381225 1.69143,0.06677 2.52937,0.100389 5.1626,-0.651923 10.20297,-2.009524 15.30765,-2.98956 2.19997,-0.456705 4.41108,-0.854782 6.62001,-1.265126 3.91903,2.347811 7.73986,4.878832 11.22325,7.844503 0.61452,0.485773 1.18702,1.162543 2.05378,1.054751 2.92562,0.32571 5.87668,0.383794 8.70149,1.180824 1.81706,1.194327 3.08198,3.036342 4.44276,4.696245 2.69656,3.573257 5.204,7.258429 7.21301,11.278456 0.38374,0.884923 0.92381,1.832143 0.66454,2.820221 0.14298,1.064014 1.47317,1.062939 2.28403,1.293039 1.36327,0.309321 3.01295,0.349549 3.88153,1.631434 2.51605,3.027566 4.35593,6.537006 6.3364,9.921226 0.0156,2.61788 -0.23396,5.25193 0.0625,7.85938 0.23701,1.84722 2.08828,2.68978 3.22416,3.93166 1.08598,0.91687 1.75015,2.18429 2.19933,3.51169 0.94603,2.64423 1.83675,5.3488 2.22656,8.09529 0.0349,1.34125 -0.73461,2.54471 -1.23735,3.74826 -0.82209,1.72607 -1.87369,3.34591 -2.66661,5.07833 -0.23979,4.22864 -0.47382,8.45123 -0.71484,12.67969 -4.03785,4.28995 -8.19146,8.4848 -12.7268,12.25369 -0.49464,0.54669 -1.55087,0.92909 -1.31014,1.81253 3.65866,10.61898 7.09585,21.32887 10.248,32.08761 0.15907,0.58773 0.33171,1.17321 0.453,1.77 -1.3231,-0.78343 -2.62059,-1.63383 -4.07422,-2.16406 -0.62256,0.37344 -0.82986,0.85853 -0.43693,1.50499 2.34108,7.58654 4.17016,15.32027 5.94233,23.05569 0.52043,2.49604 1.1576,5.04083 1.42429,7.54283 -2.54274,-1.73513 -4.47161,-4.2086 -6.86133,-6.12695 -0.53406,-0.33495 -1.17628,0.363 -0.85126,0.89884 1.5795,6.60805 2.91946,13.27216 4.35602,19.91284 3.18568,14.90201 6.17777,29.82906 9.14409,44.77696 0.69539,3.5248 1.43912,7.07827 2.03474,10.59886 -3.01404,-4.71027 -5.51169,-9.72592 -8.16943,-14.64036 -4.00733,-7.44427 -7.85788,-14.97436 -12.0189,-22.33424 -5.35799,-9.34893 -11.56273,-18.17301 -17.5378,-27.13041 -2.4102,-3.63384 -4.9735,-7.27882 -7.11919,-10.99525 -0.0846,-0.28472 -0.79121,-1.14495 -0.11141,-0.91745 2.96784,0.6389 5.54483,2.21316 8.41378,3.13488 0.44847,0.11456 1.02516,-0.50448 0.70606,-0.94675 -2.27523,-5.17593 -4.88874,-10.19733 -7.44907,-15.2368 -2.62438,-5.02661 -5.32475,-10.02986 -8.46235,-14.75802 -0.44817,-0.56516 -0.83719,-1.28706 -1.38043,-1.71343 -0.68531,-0.2838 -1.09492,0.32684 -1.57583,0.70619 -2.19913,1.95884 -4.55703,3.77424 -7.25051,5.00351 -4.64187,1.98749 -8.64575,5.12505 -12.77873,7.96706 -10.52765,7.46401 -20.89592,15.2109 -31.542637,22.47142 -1.248944,0.78615 -2.491403,1.74085 -3.836832,2.29004 0.425208,-2.58737 1.361631,-5.06149 2.098879,-7.57208 1.110108,-3.66826 2.433453,-7.28446 3.24793,-11.03395 0.17536,-0.65343 0.11217,-1.74943 -0.788215,-1.73577 -1.221965,0.32049 -2.164104,1.27531 -3.203053,1.95438 -7.137874,5.37213 -14.098272,10.9766 -21.140783,16.47294 -12.354978,9.71989 -24.797903,19.32979 -37.430613,28.68588 -8.05366,5.95721 -16.039323,12.00824 -24.208491,17.80653 -0.625108,0.42833 -1.249926,0.85807 -1.899873,1.24824 4.370483,-7.88265 9.35687,-15.40451 13.758499,-23.26937 12.582638,-21.45907 25.333303,-42.81985 37.938569,-64.26556 1.36709,-2.4658 2.898471,-4.85756 4.061407,-7.42685 -0.03443,-0.56968 -0.61235,-0.9367 -1.133475,-0.57923 -4.256668,1.79992 -8.188159,4.30234 -12.517792,5.94593 -0.850022,0.2959 -1.718837,0.71774 -2.636504,0.65954 2.271054,-5.96505 4.803433,-11.83523 7.404892,-17.67297 4.732279,-10.43855 9.640141,-20.7989 14.161514,-31.33094 0.411495,-1.15697 0.973695,-2.2911 1.220703,-3.48828 -1.056835,-5.14692 -2.477378,-10.20952 -2.821779,-15.46518 -0.326063,-4.7715 1.424782,-9.48116 3.733823,-13.4994 2.025286,-3.46447 4.414345,-6.76136 7.380925,-9.482688 1.13955,-0.970694 2.537519,-2.155269 4.193734,-2.106979 4.040366,-0.379226 8.158099,-0.06606 12.142203,-0.941849 0.696328,-0.105276 1.575749,-0.744289 1.105469,-1.521485 -1.823321,-3.207138 -4.121942,-6.113888 -6.220114,-9.14208 -3.673119,-5.072383 -7.108114,-10.316931 -10.879131,-15.318019 -0.286561,-0.316406 -0.635222,-1.023082 -1.123871,-0.580222 -0.660701,0.185209 -0.327401,1.036295 -0.386534,1.546634 0.116022,2.235839 0.473216,4.433015 0.377228,6.65775 -2.662834,-3.59994 -4.881793,-7.465228 -7.274407,-11.250421 -2.969564,-4.725479 -5.896856,-9.491486 -9.241218,-13.964423 -0.301097,-0.382212 -0.919666,-1.161838 -1.348089,-0.50522 -0.478188,0.458656 -0.119153,1.260321 -0.206783,1.863851 0.105596,4.708608 0.553741,9.408231 0.502138,14.119885 C 61.404741,63.172783 59.788904,58.151689 57.692656,53.32765 54.218191,44.946235 49.59055,37.106168 44.589456,29.555673 34.807493,14.736409 24.057712,0.56225712 14.280096,-14.234061 c -0.592036,-0.928888 -1.202539,-1.850621 -1.70783,-2.830392 z" />
    <path
       id="path858"
       style="fill:#9d0606;fill-opacity:1;stroke-width:0.203571;stroke-linecap:round;stroke-linejoin:round"
       d="m 123.38657,160.32852 c -0.59605,0.0313 -1.03171,0.49761 -1.46621,0.8518 -0.65056,0.55989 -1.20237,1.29111 -1.34086,2.15732 -0.10559,0.68397 -0.41227,1.35637 -0.67595,2.00864 -0.67612,1.56596 -1.43375,3.1068 -2.41843,4.50464 -0.79915,1.18263 -1.68193,2.30827 -2.42051,3.53159 -0.51419,0.80267 -0.88355,1.69887 -1.51252,2.42546 -1.04066,1.27575 -2.45099,2.16318 -3.83238,3.02382 -0.43217,0.30094 -0.90438,0.55799 -1.2836,0.92657 -0.28163,0.30462 -0.17293,0.80139 0.13896,1.04178 0.52157,0.42895 1.16131,0.67699 1.72788,1.03817 0.4422,0.25928 0.85506,0.5148 1.29313,0.79376 1.81179,1.16495 3.60093,2.43908 5.31283,3.77141 1.12856,0.89018 2.2647,1.78508 3.24967,2.83633 0.29337,0.3019 0.51572,0.68827 0.51808,1.11944 0.0506,0.56764 -0.0796,1.16243 0.12247,1.70894 0.20125,0.48973 0.76629,0.61079 1.2141,0.77178 1.31868,0.41532 2.68054,0.71119 4.05905,0.8301 2.14331,0.13552 4.29326,0.12257 6.43956,0.0843 1.07365,-0.0361 2.15403,-0.04 3.21823,-0.20018 2.48976,-0.45295 4.83595,-1.50611 6.98577,-2.81932 1.5072,-0.92108 2.9061,-2.0119 4.19862,-3.21395 0.68128,-0.60823 1.39211,-1.18316 2.13265,-1.71707 1.20668,-0.98438 1.99538,-2.35702 2.75254,-3.69226 0.10517,-0.1734 0.21624,-0.34321 0.33245,-0.50942 -0.0218,0.63494 -0.0907,1.27348 -0.10168,1.90523 0.0816,0.12935 0.0654,0.35769 0.22116,0.41189 0.17037,0.0529 0.33973,0.17833 0.51242,0.0647 0.3805,-0.19668 0.7325,-0.45657 1.08596,-0.70142 0.62415,-0.47194 1.25978,-0.96235 1.71489,-1.60731 0.29856,-0.43857 0.12796,-0.98832 0.0267,-1.46195 -0.2566,-1.02691 -0.75491,-1.96982 -1.18745,-2.92962 -1.02532,-2.15098 -2.08582,-4.28737 -3.25081,-6.36657 -0.28344,-0.48618 -0.56687,-1.05661 -1.13625,-1.25371 -0.53586,-0.15237 -1.04367,0.17181 -1.52736,0.35601 -0.57174,0.26933 -1.20102,0.44828 -1.70265,0.84485 -0.40552,0.31934 -0.49101,0.88537 -0.36668,1.36177 0.24852,1.00235 0.66114,1.95525 0.93914,2.94949 0.0742,0.24633 0.1416,0.49453 0.20706,0.74331 -1.44375,-1.54431 -2.9155,-3.07576 -4.56472,-4.40401 -0.61066,-0.50675 -1.3058,-0.89871 -2.03862,-1.19911 -1.38448,-0.58418 -2.80159,-1.10298 -4.25786,-1.47783 -0.54187,-0.14844 -1.18266,-0.21632 -1.65682,0.15005 -0.56978,0.44237 -0.69294,1.20753 -0.7946,1.87713 -0.13178,0.95856 -0.11771,1.93028 -0.2478,2.88904 -0.0194,0.13202 -0.0518,0.35777 -0.0822,0.52452 -0.28363,1.49374 -0.76282,2.94067 -1.19369,4.39624 -0.43995,1.40738 -0.86985,2.84438 -1.45844,4.21099 -0.0554,0.12063 -0.11686,0.26165 -0.17872,0.36328 -0.21104,-1.34003 -0.27893,-2.69706 -0.4258,-4.04472 -0.28638,-2.80533 -0.56785,-5.61731 -1.10593,-8.38788 -0.29445,-1.56999 -0.78015,-3.10204 -1.44703,-4.55366 -0.73832,-1.61486 -1.59642,-3.1901 -2.70132,-4.58578 -0.46376,-0.54715 -0.97462,-1.15779 -1.70971,-1.31773 -0.10388,-0.0223 -0.21045,-0.0339 -0.31671,-0.0308 z" />
    <path
       id="path860"
       style="fill:#9d0606;fill-opacity:1;stroke-width:0.203571;stroke-linecap:round;stroke-linejoin:round"
       d="m 99.73788,182.65584 c -0.0477,0.14686 -0.20503,0.28851 -0.1804,0.4388 0.0776,0.18851 0.1214,0.40301 0.31896,0.50381 0.77145,0.67517 1.71894,1.09377 2.62027,1.56218 3.17847,1.55872 6.43414,2.95466 9.70881,4.29734 2.00149,0.80766 4.00833,1.60597 6.04851,2.31133 0.39947,0.11192 0.85164,0.31572 1.25576,0.11596 0.38278,-0.19843 0.42159,-0.77014 0.10285,-1.04542 -0.58809,-0.51979 -1.29329,-0.88344 -1.96268,-1.28571 -2.51669,-1.42079 -5.09201,-2.73825 -7.71091,-3.96015 -1.14822,-0.53387 -2.31077,-1.04942 -3.53346,-1.38975 -1.79454,-0.53307 -3.59336,-1.05706 -5.41359,-1.49591 -0.28347,-0.053 -0.57039,-0.12335 -0.8545,-0.15153 -0.13321,0.033 -0.2664,0.066 -0.39962,0.099 z" />
    <path
       id="path862"
       style="fill:#9d0606;fill-opacity:1;stroke-width:0.203571;stroke-linecap:round;stroke-linejoin:round"
       d="m 81.43358,128.41161 c -0.14385,0.0995 -0.36854,0.13505 -0.3819,0.34389 -0.11255,0.19942 -0.06,0.4188 0.0124,0.62173 0.67074,2.09368 1.48169,4.13887 2.24742,6.19885 0.88699,2.37631 1.77972,4.74135 2.59387,7.14746 0.14462,0.44333 0.29564,0.8859 0.40177,1.34034 -0.67691,-0.23068 -1.22338,-0.72457 -1.73892,-1.20303 -0.3669,-0.34801 -0.69236,-0.78132 -1.17187,-0.97736 -0.34345,-0.1139 -0.70768,0.15592 -0.76277,0.50082 -0.13224,0.74902 -0.0815,1.51632 -0.0676,2.27314 0.0625,1.66597 0.21235,3.33732 0.62597,4.95674 0.86247,3.51747 2.35247,6.84381 4.00183,10.05525 1.82348,3.50884 3.95999,6.89386 6.68671,9.77579 2.1826,2.30399 4.8038,4.27181 7.82364,5.32147 1.51993,0.52282 3.126,0.84356 4.7389,0.77671 1.81957,-0.0629 3.64263,-0.35186 5.36448,-0.95321 0.82942,-0.29488 1.67267,-0.69728 2.20038,-1.43187 0.62458,-0.84293 0.92025,-1.87354 1.16743,-2.87885 0.25651,-1.26161 0.21127,-2.55773 0.22799,-3.83815 -0.0138,-2.16433 0.0109,-4.33372 -0.18309,-6.49151 -0.17151,-1.84965 -0.63911,-3.65635 -1.17343,-5.4303 -0.25117,-0.82164 -0.65363,-1.62204 -1.31747,-2.18741 -0.84148,-0.72918 -1.83975,-1.24208 -2.7291,-1.90716 -3.64968,-2.61662 -6.76087,-5.93611 -9.35712,-9.58848 -0.76732,-1.06389 -1.43626,-2.20468 -2.3115,-3.18671 -0.52888,-0.60099 -1.25759,-1.00329 -2.03952,-1.16319 -1.20208,-0.24994 -2.42961,-0.34386 -3.64127,-0.53648 -1.05963,-0.16925 -2.13519,-0.30714 -3.15423,-0.65613 -0.24027,-0.0846 -0.45696,-0.23731 -0.6118,-0.43985 0.49591,-0.29814 1.09474,-0.34271 1.65698,-0.41345 0.88339,-0.0814 1.78263,-0.0971 2.64456,-0.32501 0.41193,-0.14523 0.83606,-0.53999 0.72502,-1.01629 -0.11124,-0.49554 -0.64495,-0.70006 -1.07694,-0.84199 -1.87645,-0.54798 -3.85368,-0.54849 -5.75969,-0.94841 -1.15085,-0.21334 -2.28367,-0.61719 -3.22595,-1.32594 -0.69917,-0.48917 -1.27776,-1.15403 -2.05346,-1.52904 -0.11547,-0.0495 -0.23868,-0.0528 -0.36174,-0.0424 z" />
    <path
       id="path864"
       style="fill:#9d0606;fill-opacity:1;stroke-width:0.203571;stroke-linecap:round;stroke-linejoin:round"
       d="m 89.06154,100.82001 c -1.58265,0.0221 -3.17682,0.46256 -4.47664,1.38235 -1.64941,1.14012 -2.78747,2.84002 -3.80296,4.53409 -1.11459,1.88184 -2.04354,3.8716 -2.77567,5.93247 -0.80338,2.23841 -1.50415,4.52069 -1.96416,6.85609 -0.11959,0.71644 -0.27043,1.45023 -0.16428,2.17745 0.14737,0.59753 0.55859,1.08243 0.90977,1.57258 0.66276,0.85157 1.36218,1.68644 2.18271,2.39132 0.26072,0.23004 0.66828,0.44549 0.99383,0.21403 0.308,-0.17789 0.30326,-0.58116 0.22116,-0.88435 -0.23598,-1.1191 -0.62613,-2.23007 -0.93041,-3.31012 -0.34615,-1.25395 -0.72114,-2.51179 -0.85434,-3.81015 -0.0452,-0.23899 0.13156,0.0952 0.1913,0.15123 1.13501,1.6071 2.02507,3.37336 3.18847,4.96197 0.77356,1.05352 1.60334,2.10739 2.697,2.84657 0.89829,0.60064 2.01115,0.68151 3.05636,0.77731 1.6007,0.0959 3.19754,0.31689 4.74443,0.74723 1.21534,0.30881 2.38506,0.78154 3.61225,1.04416 0.18055,0.0378 0.39833,0.0393 0.50392,-0.13893 0.11886,-0.12725 0.29091,-0.23526 0.25472,-0.43464 -0.0959,-0.74044 -0.32888,-1.45593 -0.52176,-2.17548 -0.3002,-1.10576 -0.6659,-2.19959 -0.84399,-3.33399 -0.0115,-0.12916 -0.0739,-0.34069 0.13147,-0.27827 0.31792,-2.8e-4 0.48731,0.32983 0.66199,0.54679 0.73334,1.0978 1.30855,2.29057 1.93836,3.44849 1.81406,3.41211 3.67625,6.81191 5.89253,9.98335 1.54263,2.19158 3.27586,4.26278 5.27066,6.05807 1.03429,0.90046 2.1404,1.77574 3.44205,2.25142 0.97814,0.28329 2.01393,0.22111 3.01786,0.15343 0.76031,-0.0465 1.48929,-0.30654 2.14699,-0.6825 1.26648,-0.70752 2.37635,-1.65953 3.44022,-2.63749 1.26595,-1.19634 2.47674,-2.48265 3.3759,-3.9834 0.58507,-0.97404 0.84812,-2.10999 0.8692,-3.23912 0.014,-0.98066 -0.0214,-1.96579 -0.15271,-2.93827 -0.12973,-0.9783 -0.7102,-1.80164 -1.15142,-2.65876 -0.13642,-0.072 -0.24889,-0.2513 -0.4011,-0.25269 -0.151,0.0597 -0.38733,0.003 -0.44178,0.19448 -0.0999,0.15493 -0.18706,0.3139 -0.15785,0.50489 -0.0329,0.96423 -0.0617,1.92859 -0.0989,2.89266 -0.0149,0.23803 -0.0261,0.55216 -0.0496,0.81907 -0.0327,0.61714 -0.22661,1.21106 -0.51014,1.75681 -0.87021,1.8633 -2.36913,3.46967 -4.27829,4.2803 -1.44208,0.62187 -3.0734,0.76528 -4.611,0.4705 -0.89595,-0.22741 -1.71032,-0.68351 -2.53949,-1.07867 -0.86157,-0.44394 -1.72699,-0.90461 -2.4814,-1.51859 -0.63574,-0.62891 -1.05643,-1.43433 -1.47637,-2.21433 -0.53875,-1.06302 -1.01653,-2.16322 -1.33895,-3.31246 -0.018,-0.0748 -0.0684,-0.26843 -0.092,-0.38913 -0.0197,-0.16853 -0.0939,-0.3737 -0.0356,-0.52456 1.01002,-0.52234 2.13574,-0.75461 3.18209,-1.18984 1.91032,-0.73042 3.68154,-1.81114 5.21226,-3.16682 1.50154,-1.32091 2.84025,-2.81517 4.11959,-4.3487 0.22741,-0.24547 0.39669,-0.57732 0.30591,-0.91881 -0.17139,-0.67307 -0.59092,-1.24614 -0.94411,-1.83348 -0.3855,-0.57359 -0.74311,-1.17847 -1.23124,-1.67224 -0.24103,-0.21138 -0.61341,-0.17135 -0.8627,0.008 -0.38007,0.2115 -0.66355,0.56688 -1.06608,0.73949 0.0504,-0.60276 0.18423,-1.19701 0.18391,-1.80453 0.0329,-1.22034 0.0311,-2.45954 -0.24638,-3.65485 -0.27599,-1.1941 -1.02643,-2.20518 -1.86039,-3.07468 -1.05609,-1.09118 -2.15421,-2.16164 -3.42101,-3.00839 -0.95843,-0.63523 -2.10124,-1.07461 -3.26753,-0.96302 -1.40163,0.1253 -2.65655,0.84656 -3.81793,1.59108 -3.98413,2.59611 -7.2158,6.18739 -9.94119,10.05049 -0.77658,1.09222 -1.50186,2.22445 -2.35614,3.2591 0.33864,-1.28476 0.90254,-2.49701 1.49076,-3.68363 0.90752,-1.82651 2.0542,-3.52852 3.37511,-5.08111 1.39507,-1.64844 2.91086,-3.15262 4.43778,-4.68104 0.65016,-0.6787 1.33487,-1.33436 1.88534,-2.09952 0.19666,-0.25539 0.26614,-0.66741 -0.001,-0.89859 -0.24627,-0.2348 -0.60873,-0.28335 -0.91686,-0.40444 -2.05867,-0.63267 -4.14491,-1.17351 -6.23792,-1.67971 -1.51186,-0.36369 -3.05171,-0.67169 -4.61447,-0.63772 z m 17.35553,7.09104 c -0.45969,0.45232 -0.9816,0.83685 -1.44195,1.28948 -1.63044,1.53777 -3.17489,3.16807 -4.62243,4.87914 -0.4957,0.5839 -0.95795,1.19635 -1.35152,1.8541 -0.4745,0.6987 -0.94758,1.4141 -1.56607,1.99545 -0.17684,0.15225 -0.36652,0.30878 -0.59626,0.36983 -0.0566,-0.51469 0.18962,-1.00543 0.4119,-1.45449 0.87149,-1.64395 2.0641,-3.09233 3.31663,-4.45843 1.31157,-1.39058 2.71534,-2.71414 4.31049,-3.77625 0.50646,-0.3216 1.03074,-0.64458 1.6193,-0.78875 -0.0267,0.03 -0.0534,0.0599 -0.0801,0.0899 z" />
    <path
       id="path866"
       style="fill:#9d0606;fill-opacity:1;stroke-width:0.203571;stroke-linecap:round;stroke-linejoin:round"
       d="m 117.94349,123.8863 c -0.43567,0.21544 -0.78161,0.57427 -1.16221,0.87134 -0.77195,0.64814 -1.5117,1.33365 -2.29598,1.96725 -0.20465,0.16252 -0.46551,0.37154 -0.69643,0.54588 -1.30392,0.99779 -2.72937,1.84866 -4.27191,2.42166 -0.55579,0.24764 -1.2082,0.4422 -1.55594,0.98052 -0.31901,0.51528 -0.10996,1.13953 0.0811,1.65983 0.32962,0.968 0.81923,1.89059 1.52212,2.6403 1.21933,1.34131 2.93322,2.14512 4.69466,2.48523 0.48509,0.11949 0.98711,0.15757 1.48267,0.0845 1.03744,-0.13958 2.07667,-0.37079 3.03134,-0.80955 0.98853,-0.52192 1.65359,-1.48319 2.15201,-2.45537 0.70271,-1.43263 1.10051,-3.0605 0.90207,-4.65863 -0.15655,-1.06322 -0.78272,-1.96886 -1.32739,-2.86802 -0.57618,-0.89004 -1.14726,-1.79018 -1.8321,-2.60193 -0.1469,-0.17205 -0.35616,-0.31823 -0.59299,-0.266 -0.0437,9.9e-4 -0.0873,0.002 -0.13099,0.003 z" />
    <path
       id="path868"
       style="fill:#9d0606;fill-opacity:1;stroke-width:0.203571;stroke-linecap:round;stroke-linejoin:round"
       d="m 146.34021,73.77205 c -1.3399,0.104169 -2.65927,0.378952 -3.97862,0.624379 -3.59055,0.707507 -7.16317,1.509051 -10.70848,2.416652 -1.03661,0.280781 -2.08735,0.531227 -3.08724,0.928192 -0.29432,0.105 -0.57981,0.372391 -0.52292,0.710798 0.0624,0.370687 0.37849,0.629272 0.59364,0.919009 1.06892,1.259883 2.18261,2.480882 3.26676,3.727532 0.0915,0.112641 0.24606,0.292606 0.35722,0.434909 0.24024,0.315923 0.50895,0.623266 0.68037,0.982078 0.0395,0.19137 0.0289,0.391432 -0.0139,0.58134 -1.53776,-0.7478 -2.98905,-1.65839 -4.51215,-2.434783 -2.03221,-1.049293 -4.12422,-2.050439 -6.37011,-2.544853 -1.90066,-0.425077 -3.91171,-0.345858 -5.77305,0.225785 -1.00867,0.310737 -1.95556,0.940745 -2.46721,1.884979 -0.42297,0.717751 -0.57277,1.55289 -0.61445,2.374696 -0.10506,1.924264 0.0838,3.851405 0.33581,5.75763 0.18963,1.325099 0.35833,2.631315 0.46694,3.970239 0.0388,0.514107 0.0592,1.030531 0.047,1.546011 -0.38634,-0.0085 -0.67702,-0.326538 -0.93184,-0.58206 -0.59544,-0.626869 -0.92704,-1.435409 -1.38377,-2.15679 -0.22301,-0.308864 -0.44251,-0.714058 -0.85174,-0.784392 -0.434,-0.05841 -0.71721,0.343112 -0.98124,0.620059 -1.0374,1.229823 -1.97651,2.541355 -2.85197,3.890494 -0.22603,0.388591 -0.51443,0.76372 -0.60312,1.213072 -0.0429,0.346917 0.23247,0.614702 0.52142,0.752925 0.65251,0.341982 1.37255,0.529654 2.03147,0.859658 0.22154,0.103084 0.45072,0.217953 0.63847,0.319041 1.69558,0.88746 3.0753,2.26232 4.25574,3.74813 0.86069,1.04737 1.57475,2.20813 2.46359,3.23255 0.33684,0.38129 0.81547,0.77646 1.36088,0.65096 0.59661,-0.14931 0.91453,-0.73283 1.24116,-1.20105 0.59465,-0.87734 0.98272,-1.90348 1.02823,-2.96795 0.0702,-0.98453 -0.0562,-1.99766 -0.49824,-2.88945 -0.72551,-1.509081 -1.8337,-2.783978 -2.72479,-4.192027 -0.36136,-0.587042 -0.77451,-1.172599 -0.9277,-1.855211 -0.0193,-0.141451 -0.065,-0.382003 0.15398,-0.306911 2.14924,0.01895 4.29872,0.08033 6.448,0.04622 0.90983,-0.0095 1.81838,-0.12672 2.69169,-0.386316 2.16106,-0.581398 4.27294,-1.328012 6.38424,-2.066099 1.52701,-0.551485 3.05514,-1.101037 4.5993,-1.603426 1.5153,-0.493162 3.09714,-0.963665 4.66164,-1.385231 1.55898,-0.428424 3.14264,-0.802754 4.71792,-1.199221 0.77666,-0.214818 1.5693,-0.395243 2.31349,-0.708697 0.54581,-0.335524 0.96266,-0.839317 1.38846,-1.309796 0.59563,-0.682638 1.10889,-1.464567 1.86338,-1.986844 0.0815,-0.03834 0.31048,-0.214024 0.24886,-0.01016 -0.0202,0.312809 -0.10575,0.674944 -0.16417,0.943965 -0.35428,1.401566 -0.73872,2.816706 -1.42989,4.095355 -0.25982,0.468223 -0.61515,0.951 -1.07384,1.198894 -0.14798,0.09397 -0.21918,0.1358 -0.37197,0.223078 -0.98391,0.528272 -2.0587,0.85476 -3.1032,1.239417 -3.31978,1.155496 -6.66239,2.29014 -9.92542,3.616179 -2.68377,1.094311 -5.35432,2.264524 -7.81412,3.809556 -1.30252,0.817401 -2.57093,1.830325 -3.25303,3.243845 -0.51501,1.04692 -0.55795,2.30252 -0.12726,3.38556 0.37129,1.0449 1.1457,1.8718 1.94572,2.61042 1.2252,1.11019 2.56587,2.10664 4.03137,2.87748 0.5392,0.27262 1.112,0.52667 1.72437,0.54974 0.6308,0.23364 1.17415,0.66485 1.64166,1.14073 0.14965,0.16101 0.27919,0.34569 0.34634,0.55684 -0.5475,0.11834 -1.11537,0.034 -1.66785,-0.008 -1.98874,-0.21915 -3.94594,-0.69084 -5.83282,-1.35272 -0.8818,-0.29964 -1.80525,-0.48222 -2.73881,-0.48065 -1.26108,-0.0201 -2.55807,0.0353 -3.74978,0.48607 -0.45072,0.17588 -0.97118,0.50028 -0.99327,1.03788 0.0289,0.55337 0.2948,1.05939 0.49781,1.56529 1.14057,2.53142 2.52987,4.93987 3.89007,7.35725 0.86709,1.50096 1.70976,3.02118 2.70306,4.44387 0.28202,0.36021 0.55152,0.81154 1.01954,0.94125 0.47512,0.0982 0.86614,-0.27888 1.18674,-0.57348 1.00531,-1.00142 1.82957,-2.16539 2.64361,-3.32264 0.56674,-0.84287 1.16216,-1.67158 1.64581,-2.56601 0.1424,-0.29895 0.0148,-0.67364 -0.27082,-0.83877 -0.70805,-0.46101 -1.54377,-0.65739 -2.32339,-0.96158 -0.39947,-0.14544 -0.80388,-0.27845 -1.19459,-0.44665 1.37155,-0.24765 2.79085,-0.17635 4.14218,-0.54215 0.34968,-0.10447 0.61495,-0.37232 0.9443,-0.52212 1.47571,-0.81588 3.03731,-1.47539 4.45278,-2.39912 2.52008,-1.57905 4.66434,-3.69748 6.47546,-6.04396 1.72281,-2.20855 3.18297,-4.60466 4.60402,-7.01366 0.57957,-0.9429 1.13601,-1.903262 1.78041,-2.803878 0.22267,-0.259918 0.47913,-0.569666 0.8382,-0.614984 0.15123,0.105111 0.15383,0.337127 0.18097,0.50487 0.0476,0.931886 -0.19844,1.846832 -0.41584,2.744792 -0.37942,1.50627 -0.9198,2.96466 -1.35261,4.45505 -0.13697,0.56262 -0.33782,1.19666 -0.0636,1.74961 0.29263,0.5426 0.96242,0.66523 1.524,0.70379 1.36914,0.0732 2.73537,-0.12615 4.08395,-0.34167 1.61639,-0.26171 3.20611,-0.65765 4.7929,-1.05624 1.24132,-0.27684 2.56503,-0.54606 3.81206,-0.15046 0.21286,0.0327 -0.12261,0.11303 -0.1819,0.16043 -0.75872,0.32757 -1.55937,0.54624 -2.31804,0.87542 -2.13654,0.86057 -4.19314,1.90145 -6.2982,2.83375 -2.67721,1.20946 -5.37802,2.36798 -8.02184,3.64995 -1.80483,0.8766 -3.61559,1.75084 -5.33922,2.78097 -2.02432,1.24772 -3.67744,3.08906 -4.72141,5.22402 -0.62015,1.26601 -0.97861,2.66837 -0.95419,4.0826 0.0127,1.3364 0.0584,2.67972 0.27998,3.99999 0.3782,2.23465 1.50008,4.23396 2.4061,6.28226 0.0803,0.1836 0.15658,0.36898 0.22897,0.55585 -0.73576,-0.57529 -1.29855,-1.33423 -1.87627,-2.05984 -1.54588,-1.97621 -2.79154,-4.17983 -3.72454,-6.50762 -0.35973,-0.83907 -0.59957,-1.73281 -1.05254,-2.52954 -0.12491,-0.19788 -0.37454,-0.32397 -0.60701,-0.2789 -0.35544,0.0574 -0.58224,0.38553 -0.82957,0.61842 -1.02973,1.1425 -1.97517,2.36539 -2.79487,3.66748 -0.42905,0.65208 -0.5103,1.44551 -0.55613,2.20478 -0.0599,0.95976 -0.10967,1.92153 -0.24466,2.87449 -0.0213,0.12691 -0.0499,0.34703 -0.0805,0.50963 -0.25347,1.58173 -0.8427,3.10296 -1.70677,4.45097 -1.70839,2.69076 -4.05517,4.87988 -6.06865,7.32987 -0.21867,0.30059 -0.51977,0.56639 -0.62208,0.93404 -0.0409,0.47974 0.27188,0.89395 0.50575,1.28503 0.59028,0.8912 1.29749,1.73157 2.21414,2.30132 1.07674,0.6888 2.25686,1.22498 3.49001,1.56299 1.21626,0.26556 2.48944,0.36064 3.72033,0.13851 1.04979,-0.18898 1.98345,-0.79301 2.6924,-1.57576 0.77888,-0.85989 1.44799,-1.81152 2.14919,-2.73417 1.84626,-2.49719 3.66103,-5.01876 5.40641,-7.58777 0.73057,-1.03815 1.30207,-2.17726 2.02973,-3.21694 0.42314,-0.46999 1.01798,-0.73436 1.57141,-1.01781 0.5982,-0.28839 1.22759,-0.55304 1.82102,-0.79216 3.57746,-1.42455 7.24173,-2.5745 10.86776,-3.87913 2.37133,-0.85936 4.75517,-1.71286 7.00852,-2.85505 1.53922,-0.77803 2.98477,-1.77878 4.12753,-3.081 1.63412,-1.81917 2.75026,-4.02668 4.31099,-5.90246 0.12631,-0.13878 0.25246,-0.28141 0.40825,-0.38809 0.15147,0.47224 0.0386,0.98112 -0.0376,1.45806 -0.20495,1.15115 -0.68149,2.22835 -0.94896,3.36284 -0.0404,0.19111 -0.0567,0.43109 0.13584,0.54517 0.11824,0.11349 0.21929,0.26588 0.40471,0.24186 0.62523,-0.08 1.21764,-0.32028 1.81761,-0.50437 1.51995,-0.51269 2.84617,-1.44206 4.17909,-2.3098 2.48938,-1.66636 4.95898,-3.36291 7.39846,-5.10167 0.50073,-0.37099 1.00195,-0.74975 1.48117,-1.14399 0.11522,-0.17427 0.22428,-0.35084 0.22952,-0.56617 0.22932,-1.28689 0.46075,-2.57585 0.55055,-3.88171 0.0787,-0.95767 0.063,-1.92163 0.0565,-2.88023 -0.0713,-0.36715 -0.32247,-0.66313 -0.48011,-0.99611 -0.97001,-1.74585 -1.88875,-3.53098 -3.06546,-5.15031 -0.27514,-0.33062 -0.56134,-0.66082 -0.85929,-0.96665 -0.19455,-0.0872 -0.38161,-0.20813 -0.6042,-0.16925 -3.24308,-0.0159 -6.5015,-0.1663 -9.7287,0.24159 -2.23822,0.26662 -4.43514,0.78074 -6.64142,1.22774 -1.13987,0.20643 -2.28883,0.44372 -3.4526,0.42078 -0.1774,-0.0118 -0.35925,-0.0254 -0.52551,-0.0935 0.4495,-0.52249 1.03682,-0.90256 1.58295,-1.31552 2.53904,-1.82446 5.19345,-3.486975 7.67773,-5.38772 0.92488,-0.720519 1.86666,-1.503614 2.37434,-2.588255 0.46308,-0.937226 0.81651,-1.989458 0.69107,-3.047325 -0.0597,-0.579073 -0.47525,-1.024372 -0.77976,-1.492279 -1.36495,-1.886271 -2.8241,-3.703442 -4.32792,-5.480447 -0.60695,-0.677818 -1.17173,-1.418601 -1.9291,-1.937848 -0.63926,-0.358347 -1.3961,-0.369853 -2.10587,-0.460629 -2.80477,-0.246999 -5.61644,-0.407101 -8.42373,-0.622885 -0.81663,-0.06039 -1.62319,-0.123658 -2.44501,-0.200599 -0.15841,-0.016 -0.35182,-0.03476 -0.50911,-0.0551 -0.25281,-0.03015 -0.50626,-0.06204 -0.75388,-0.122671 -0.1171,-0.62678 -0.17007,-1.237118 -0.23659,-1.879161 -0.18613,-1.758376 -0.79391,-3.549034 -2.0655,-4.822431 -0.97411,-0.995891 -2.36296,-1.548984 -3.75282,-1.529945 -0.0483,-2.43e-4 -0.0965,0.0026 -0.1447,0.0036 z" />
    <path
       id="path870"
       style="fill:#9d0606;fill-opacity:1;stroke-width:0.203571;stroke-linecap:round;stroke-linejoin:round"
       d="m 185.52283,123.80414 c -1.65981,0.0481 -3.32846,0.15499 -4.95501,0.50604 -1.5581,0.41162 -3.122,0.80534 -4.66437,1.27371 -0.79936,0.24076 -1.57506,0.58416 -2.23133,1.10789 -1.05876,0.83293 -2.13964,1.63776 -3.25657,2.39143 -1.74202,1.1862 -3.51909,2.32167 -5.33644,3.38913 -0.35531,0.20609 -0.76467,0.43867 -1.14493,0.64728 -3.2653,1.78028 -6.6044,3.42321 -9.97998,4.98338 -2.14302,0.99494 -4.36324,1.82467 -6.45326,2.932 -0.834,0.46978 -1.56176,1.2346 -1.74747,2.20036 -0.22831,1.147 0.1215,2.30779 0.50723,3.38072 0.53049,1.38394 1.15599,2.73792 1.9353,4.00038 0.17023,0.26371 0.38494,0.50558 0.47895,0.81131 -0.92605,-0.93666 -1.68058,-2.02618 -2.40398,-3.12229 -0.55126,-0.83959 -1.02547,-1.72531 -1.49519,-2.61197 -0.29996,-0.48646 -0.54443,-1.05407 -1.04367,-1.37176 -0.60066,-0.37899 -1.36734,-0.22213 -1.96165,0.0868 -1.1494,0.60632 -2.08386,1.53409 -2.99707,2.44209 -1.4755,1.52355 -2.86401,3.13132 -4.17745,4.79626 -1.31728,1.71033 -2.58416,3.50298 -3.3623,5.53141 -0.34097,0.89719 -0.3111,1.87631 -0.25741,2.81842 0.0675,0.95815 0.59055,1.8043 1.14231,2.56109 1.20891,1.57948 2.83712,2.78719 4.55406,3.76463 1.59313,0.88894 3.29935,1.59448 5.07963,2.0043 1.37753,0.26725 2.80239,0.324 4.19367,0.13309 0.59007,-0.0792 1.17681,-0.26 1.6524,-0.62982 1.30615,-0.94949 2.49481,-2.04812 3.68867,-3.13224 1.67415,-1.55746 3.32845,-3.14238 4.85129,-4.84984 0.48009,-0.50288 0.82055,-1.12807 1.34932,-1.58472 0.61275,-0.4889 1.35644,-0.77277 2.07116,-1.07661 1.93281,-0.77343 4.03894,-1.19368 6.11828,-1.47849 1.7472,-0.24647 3.51094,-0.3342 5.26335,-0.53181 1.90469,-0.22497 3.86565,-0.57068 5.51458,-1.6095 1.53784,-0.96719 2.74048,-2.36073 3.88483,-3.74993 0.86127,-1.04045 1.65068,-2.13671 2.43387,-3.2362 0.3183,-0.43576 0.6459,-0.87005 0.97832,-1.2689 0.19749,-0.2331 0.39942,-0.46474 0.63138,-0.66449 0.0792,0.76474 -0.0983,1.55281 0.10853,2.30371 0.0544,0.13963 0.1801,0.25957 0.30901,0.32248 0.1978,0.0173 0.41479,0.0815 0.57552,-0.0751 0.47874,-0.46238 0.85627,-1.01844 1.27299,-1.53548 1.5584,-2.05599 3.10018,-4.12685 4.54422,-6.26533 1.129,-1.72786 2.08896,-3.57899 2.74153,-5.54043 0.41725,-1.23127 0.60182,-2.56101 0.36698,-3.84926 -0.23014,-1.26958 -0.75044,-2.47796 -1.43645,-3.56625 -0.57063,-0.90514 -1.43367,-1.61978 -2.44007,-1.98863 -1.19692,-0.44459 -2.47811,-0.63138 -3.75134,-0.64782 -0.38378,-0.008 -0.76763,-0.007 -1.15144,-10e-4 z m -28.39103,16.62379 c 0.74265,0.51607 1.35691,1.19177 1.96381,1.85626 0.76568,0.848 1.36763,1.85943 1.63272,2.97774 0.23593,0.92795 0.32052,1.88559 0.3841,2.8384 0.009,0.19925 0.026,0.4792 0.0373,0.7096 0.0212,0.85805 0.11502,1.72254 0.003,2.57754 -0.13814,0.63515 -0.43328,1.23051 -0.78446,1.77405 -0.2126,0.30545 -0.62961,0.34831 -0.97111,0.38816 -0.24196,2.8e-4 -0.55906,0.0338 -0.72749,-0.17577 -0.18947,-0.45776 -0.1324,-0.97181 -0.12989,-1.4564 0.0633,-1.11804 0.1556,-2.23475 0.17513,-3.35502 0.0186,-1.05789 0.0491,-2.12011 -0.0466,-3.17505 -0.14726,-1.18308 -0.63711,-2.28392 -1.03973,-3.39554 -0.19455,-0.53718 -0.42587,-1.06231 -0.58047,-1.61307 0.0279,0.0164 0.0558,0.0327 0.0837,0.0491 z" />
    <path
       id="path872"
       style="fill:#9d0606;fill-opacity:1;stroke-width:0.203571;stroke-linecap:round;stroke-linejoin:round"
       d="m 189.57323,145.76817 c -0.48752,0.1069 -0.87548,0.45569 -1.26947,0.74197 -0.82669,0.66987 -1.65261,1.39382 -2.66441,1.76756 -0.33932,0.11339 -0.72495,0.0408 -1.03947,0.24172 -0.63637,0.36664 -0.87714,1.11596 -1.08291,1.77599 -0.20815,0.76343 -0.41807,1.53182 -0.52009,2.31782 -0.0702,0.48496 0.0912,1.00298 0.479,1.31635 0.4853,0.42088 1.19129,0.29942 1.73895,0.0815 1.18962,-0.49315 2.18829,-1.34323 3.10782,-2.22673 0.69146,-0.68627 1.43478,-1.40278 1.71262,-2.36808 0.26877,-0.88943 0.42551,-1.83073 0.33909,-2.76054 -0.0328,-0.36557 -0.20214,-0.79859 -0.60272,-0.87828 -0.0661,-0.002 -0.13253,-0.0182 -0.19841,-0.009 z" />
    <path
       id="path874"
       style="fill:#9d0606;fill-opacity:1;stroke-width:0.203571;stroke-linecap:round;stroke-linejoin:round"
       d="m 75.61222,150.97095 c -0.42421,0.13395 -0.57738,0.59846 -0.79735,0.94 -1.27852,2.32604 -2.48251,4.69221 -3.7006,7.0502 -2.83453,5.53244 -5.65038,11.07496 -8.38459,16.65781 -0.36835,0.79176 -0.7861,1.56409 -1.0932,2.38217 -0.0976,0.33684 0.14181,0.72584 0.50045,0.7523 0.43416,0.0378 0.83072,-0.20225 1.22537,-0.34953 0.99272,-0.42557 1.95718,-0.91516 2.96058,-1.31619 0.10665,-0.039 0.29967,-0.11856 0.44249,-0.16994 0.2926,-0.0917 0.58148,-0.24333 0.89075,-0.25329 0.38761,0.0996 0.6419,0.44752 0.91604,0.71518 0.21219,0.23108 0.43241,0.50811 0.59912,0.72646 1.13117,1.50872 2.13744,3.11123 3.02736,4.77324 0.22606,0.45367 0.48475,0.90341 0.60291,1.39964 -0.10377,0.49968 -0.39706,0.9356 -0.62616,1.38574 -1.22772,2.16568 -2.5376,4.28931 -3.82273,6.41534 -5.2314,8.54407 -10.49891,17.06613 -15.75951,25.59243 -7.65979,12.41074 -15.33657,24.81079 -23.03105,37.20005 -2.05518,3.32821 -4.12801,6.64577 -6.15461,9.99144 -0.17748,0.29611 -0.36026,0.68503 -0.16642,1.01452 0.11771,0.16145 0.29496,0.30925 0.50853,0.26487 0.32274,-0.009 0.55449,-0.28211 0.81169,-0.44565 2.34651,-1.79761 4.62587,-3.68086 6.92459,-5.53867 8.16645,-6.65598 16.29643,-13.35667 24.428,-20.05465 10.42035,-8.5849 20.82038,-17.19026 31.27574,-25.73246 3.30692,-2.69123 6.60643,-5.3928 9.98667,-7.99198 2.06986,0.82558 4.15673,1.63752 6.19704,2.49804 0.99169,0.42723 2.0052,0.8353 2.95818,1.36585 0.16168,0.0677 0.25442,0.21823 0.24034,0.39368 0.056,0.6098 -0.14734,1.20498 -0.27881,1.79322 -0.10698,0.40474 -0.23427,0.84646 -0.34468,1.22368 -0.37322,1.25127 -0.79319,2.492 -1.07021,3.7693 -0.0456,0.17714 0.0117,0.34435 0.13568,0.47401 0.0784,0.19009 0.28374,0.25845 0.47574,0.22238 0.32613,-0.042 0.58241,-0.28938 0.85493,-0.45619 1.15485,-0.83165 2.2589,-1.73155 3.39098,-2.59369 4.62634,-3.57973 9.28528,-7.11913 13.82432,-10.80984 0.87889,-0.72777 1.76755,-1.44582 2.6127,-2.21264 0.30996,-0.27709 0.57809,-0.73114 0.37312,-1.14475 -0.23873,-0.47009 -0.7997,-0.60199 -1.25891,-0.75936 -1.62717,-0.46565 -3.26703,-0.87496 -4.88879,-1.33794 -4.42394,-1.24885 -8.84052,-2.59814 -13.02925,-4.51174 -1.05492,-0.48328 -2.09206,-1.00569 -3.10859,-1.56538 -0.19248,-0.10784 -0.44442,-0.24614 -0.63648,-0.35864 -2.3541,-1.34434 -4.59761,-2.88846 -6.64612,-4.66651 -3.82868,-3.30637 -7.10883,-7.23821 -9.73638,-11.55819 -1.02584,-1.66786 -1.90132,-3.42132 -2.73282,-5.19236 -1.88431,-3.99588 -3.70192,-8.02358 -5.44378,-12.08363 -0.86926,-2.0267 -1.68092,-4.08184 -2.33355,-6.18936 -0.15716,-0.47854 -0.21238,-1.00037 -0.46638,-1.4413 -0.13708,-0.2151 -0.40301,-0.3291 -0.65235,-0.26767 z" />
    <path
       style="fill:#464e6f;fill-opacity:1;stroke-width:0.264583"
       d="m 201.51327,292.22157 c -0.39503,-0.26885 -1.18125,-1.65643 -3.0259,-5.34035 -0.91083,-1.81901 -2.63373,-5.15276 -3.82866,-7.40834 -1.19493,-2.25557 -2.85904,-5.41073 -3.698,-7.01146 -6.95893,-13.27748 -11.05505,-19.83719 -25.19541,-40.34896 -4.61157,-6.68946 -4.42638,-6.94883 2.50653,-3.5107 1.92998,0.9571 3.57611,1.67311 3.65809,1.59114 0.33505,-0.33505 -9.10623,-19.51466 -12.79114,-25.98476 -3.53398,-6.20509 -7.59005,-12.57693 -8.006,-12.57693 -0.095,0 -0.6261,0.65837 -1.18029,1.46303 -2.12647,3.08753 -4.1368,4.48269 -10.09363,7.00493 -1.95451,0.82758 -3.55467,1.72909 -4.7625,2.68314 -2.15799,1.70458 -4.37573,3.32276 -13.19608,9.62857 -3.63802,2.60088 -9.49497,6.83304 -13.01545,9.4048 -8.43898,6.16479 -11.60005,8.28739 -11.98637,8.04863 -0.46553,-0.28771 -0.23619,-1.17258 2.38765,-9.21217 1.30545,-3.99997 2.37355,-7.52867 2.37355,-7.84155 0,-0.58405 -1.05016,-1.18847 -2.60536,-1.49951 -0.85855,-0.17171 -3.65696,1.85822 -15.5186,11.257 -4.07458,3.22857 -11.32964,8.92925 -16.12234,12.66819 -4.7927,3.73893 -11.28161,8.80126 -14.41979,11.24963 -3.13818,2.44835 -6.82588,5.30585 -8.19487,6.35 -1.36899,1.04413 -3.92884,3.00001 -5.68854,4.34634 -14.35861,10.98579 -22.93894,17.30941 -23.29903,17.17125 -0.56715,-0.21765 -0.52256,-0.40913 0.475,-2.03992 2.78626,-4.55488 4.42461,-7.30437 7.32182,-12.28756 5.33236,-9.17165 7.89166,-13.5436 10.45469,-17.85938 1.33952,-2.25557 4.01872,-6.77995 5.95376,-10.05417 3.59199,-6.07788 8.20026,-13.83854 12.56872,-21.16666 1.3446,-2.25558 2.67991,-4.51776 2.96736,-5.02709 1.53312,-2.71653 8.78551,-14.98091 9.9351,-16.80104 3.60613,-5.70957 3.56813,-5.58703 2.21738,-7.14962 -0.88178,-1.02006 -0.88178,-1.02006 -5.6056,1.59245 -4.93576,2.72973 -8.5402,4.43095 -8.90732,4.20405 -0.11864,-0.0733 -0.21572,-0.30822 -0.21572,-0.52199 0,-0.81746 4.44791,-11.14477 9.39133,-21.8051 8.31741,-17.93625 12.30451,-27.11716 12.30451,-28.33306 0,-0.4978 -0.23779,-1.7366 -0.52843,-2.7529 -1.78972,-6.25831 -2.76312,-12.74047 -2.35718,-15.69714 0.76836,-5.59645 4.5013,-12.78842 8.96096,-17.2644 3.63691,-3.650216 3.56717,-3.624975 10.32881,-3.737843 6.1144,-0.102066 7.32433,-0.35406 8.9264,-1.859124 1.23076,-1.156245 0.65118,-2.281656 -5.35184,-10.391998 -1.18481,-1.600729 -3.50169,-4.874948 -5.14861,-7.276042 -6.50807,-9.488295 -11.63617,-15.917479 -11.0268,-13.82448 0.58144,1.997078 1.52822,7.805032 1.30819,8.025059 -0.66716,0.667163 -1.37452,-0.214156 -4.05202,-5.048496 -1.42103,-2.565749 -3.39005,-5.792396 -5.96184,-9.769684 -1.87741,-2.903437 -8.84932,-12.190734 -9.15151,-12.190734 -0.33362,0 -0.29738,0.393163 0.28164,3.055097 0.72546,3.335173 1.35057,7.713681 1.16887,8.18719 -0.39792,1.036963 -1.06595,0.04362 -4.22423,-6.281349 C 51.84915,38.270761 49.14304,33.745317 40.36824,21.051704 36.02007,14.761663 21.46831,-5.625828 19.20141,-8.6037 c -2.3438,-3.078897 -3.17665,-4.54583 -2.73563,-4.818393 0.52042,-0.321636 0.80229,-0.166373 5.91391,3.257546 5.45881,3.656474 7.82627,5.468266 15.11851,11.570025 16.35473,13.684777 23.27446,19.620691 30.75424,26.381737 2.4794,2.241161 3.24472,2.773979 3.24472,2.259002 0,-0.104034 -0.54939,-1.887712 -1.22086,-3.963728 -1.13595,-3.512064 -1.28954,-4.578371 -0.65943,-4.578371 0.46139,0 15.98351,15.692787 18.97898,19.18766 1.61891,1.888819 4.0597,4.73545 5.42396,6.325847 1.36426,1.590397 2.64542,2.945143 2.84702,3.010551 0.42907,0.139202 0.36593,-0.314942 -0.6918,-4.976141 -0.84884,-3.740669 -0.88751,-4.365625 -0.27015,-4.365625 1.32668,0 14.03585,14.255631 23.19041,26.012247 1.50865,1.937462 3.03034,3.710932 3.38153,3.94104 0.93905,0.615291 4.19511,0.3101 8.9684,-0.840616 2.16496,-0.521911 5.0702,-1.173281 6.45609,-1.447485 7.33651,-1.451552 8.64623,-1.691055 9.09467,-1.66312 1.09905,0.06846 7.08807,4.105288 10.95734,7.385661 1.65721,1.404983 1.65721,1.404983 4.10105,1.40698 5.53226,0.0045 7.52361,0.75715 9.79545,3.702169 3.83534,4.971818 8.65567,12.777156 8.65567,14.015734 0,0.309446 -0.18721,0.92465 -0.41601,1.367121 -0.60529,1.170495 -0.34805,1.483773 1.3918,1.694966 2.75128,0.333962 4.88497,0.868002 5.42964,1.358985 0.74787,0.674168 3.60364,5.061208 5.09929,7.833568 1.25461,2.32556 1.25461,2.32556 1.06243,6.55034 -0.19218,4.22477 -0.19218,4.22477 1.3594,5.61193 3.89875,3.48559 4.07995,3.81072 6.03018,10.82059 0.72666,2.61184 0.70761,2.6796 -2.29462,8.16136 -1.21371,2.21609 -1.452,3.57616 -1.6676,9.51768 -0.0975,2.68811 -0.28763,5.17754 -0.42241,5.53207 -0.48694,1.28073 -7.79134,8.26293 -12.46324,11.91347 -0.98227,0.76752 -1.78594,1.44692 -1.78594,1.50978 0,0.0628 1.30405,4.01081 2.89788,8.77324 2.59396,7.75085 4.26868,13.05645 6.27201,19.87014 0.99816,3.39492 0.68321,3.53269 -2.53988,1.11102 -0.79189,-0.59498 -1.52959,-0.9915 -1.63934,-0.88116 -0.10976,0.11035 0.3943,2.2247 1.12013,4.69855 0.72582,2.47386 1.5424,5.33136 1.81461,6.35 0.27221,1.01865 0.91056,3.3999 1.41855,5.29167 2.09679,7.80856 3.88521,14.91821 3.88521,15.44523 0,1.03692 -0.65117,0.58002 -4.10104,-2.87752 -3.27127,-3.27855 -4.10105,-3.89952 -4.10105,-3.06905 0,0.2038 0.40767,2.07903 0.90593,4.16719 0.49825,2.08816 1.21647,5.2254 1.59603,6.97165 0.37956,1.74625 0.86026,3.88937 1.06823,4.7625 0.20796,0.87312 0.68565,3.01625 1.06153,4.7625 0.88911,4.13057 1.40937,6.50925 1.85182,8.46667 0.19736,0.87312 0.67265,3.13531 1.0562,5.02708 0.38355,1.89177 0.8194,3.90932 0.96855,4.48344 0.14916,0.57412 0.36812,1.58615 0.48658,2.24896 0.25412,1.42179 0.78189,3.97836 1.72351,8.34885 0.37623,1.74625 0.85094,4.00844 1.0549,5.02708 0.20397,1.01865 1.04028,5.06678 1.85846,8.99584 0.81818,3.92906 1.55217,7.57481 1.63109,8.10165 0.14407,0.96181 -0.10951,1.41242 -0.60505,1.07516 z m -4.99979,-17.04817 c -2.41139,-11.94141 -9.04752,-39.69446 -12.35258,-51.65989 -0.44215,-1.60073 -0.86381,-3.14855 -0.93702,-3.43959 -0.0732,-0.29104 -0.84355,-2.89081 -1.71185,-5.77728 -0.86829,-2.88645 -1.51577,-5.31105 -1.43884,-5.38799 0.31724,-0.31723 3.58546,2.1266 6.476,4.84246 1.19006,1.11815 2.05629,1.61831 2.32953,1.34507 0.24269,-0.24269 -2.32799,-10.10978 -3.74784,-14.38538 -0.82392,-2.48109 -1.29829,-3.6757 -4.02567,-10.13792 -0.52205,-1.23693 -1.79959,-4.0349 -2.83899,-6.21771 -2.29167,-4.81266 -2.642,-5.65797 -2.43193,-5.86803 0.21322,-0.21322 1.89162,0.90873 3.94752,2.63876 3.96816,3.33918 4.13359,3.30206 2.82964,-0.63496 -1.92219,-5.80365 -8.07345,-19.914 -8.90548,-20.42822 -1.3645,-0.84331 -8.81804,-0.57765 -11.61257,0.4139 -3.33734,1.18414 -7.78166,4.58774 -7.78166,5.95943 0,0.2267 0.58397,1.61281 1.2977,3.08023 2.57187,5.28771 4.55354,9.9154 7.65725,17.8816 0.8788,2.25557 2.57204,6.60135 3.76277,9.65729 1.19072,3.05594 2.4493,6.19963 2.79684,6.98599 0.97366,2.20306 0.66975,2.15257 -3.06145,-0.50868 -3.88246,-2.76913 -3.9429,-2.95388 5.02233,15.35082 5.18145,10.5792 9.51206,20.31439 9.51206,21.38304 0,0.51467 -0.49845,0.36682 -2.51354,-0.74554 -1.91938,-1.05953 -2.51354,-1.25611 -2.51354,-0.83159 0,0.1247 1.17528,2.18215 2.61172,4.57213 4.57318,7.60892 9.11435,16.22092 13.93246,26.42196 2.2357,4.73347 3.14922,6.35 3.5885,6.35 0.1777,0 0.21795,-0.31856 0.10864,-0.8599 z M 32.91556,258.43851 c 4.9891,-4.07459 13.89525,-11.39016 19.79145,-16.25682 5.89619,-4.86666 13.10161,-10.8113 16.01202,-13.21031 2.91042,-2.39901 6.24417,-5.15379 7.40834,-6.12173 2.08702,-1.73525 8.22381,-6.75245 13.6031,-11.12137 3.88078,-3.15187 7.24186,-5.80957 7.34712,-5.80957 0.28423,0 9.04943,3.55047 9.543,3.86553 0.81538,0.52048 0.75942,1.09476 -0.46059,4.7262 -0.58075,1.72865 -0.99742,3.20148 -0.92594,3.27296 0.0715,0.0715 0.57641,-0.22504 1.12205,-0.65892 0.54565,-0.43389 1.76599,-1.38289 2.71188,-2.10889 0.94589,-0.72601 3.32714,-2.55406 5.29167,-4.06234 7.19983,-5.52771 12.19281,-9.5988 12.10298,-9.86831 -0.0507,-0.15202 -1.87184,-0.7232 -4.04704,-1.26929 -13.58438,-3.41044 -21.62899,-7.42563 -28.29657,-14.12325 -4.46728,-4.48742 -8.03842,-9.78451 -10.61256,-15.74163 -0.53815,-1.24539 -2.03296,-4.54517 -3.32181,-7.33285 -2.12205,-4.58985 -4.18959,-10.07173 -4.18959,-11.10831 0,-0.96289 -0.68441,0.20304 -4.37063,7.44555 -2.1479,4.22011 -5.19835,10.21168 -6.77878,13.3146 -1.58043,3.10293 -2.8735,5.81268 -2.8735,6.02169 0,0.26677 0.79878,-0.0208 2.68073,-0.96525 1.71938,-0.86283 2.88216,-1.2947 3.24242,-1.20428 1.08582,0.27253 5.60799,7.35317 5.39795,8.45192 -0.10578,0.55336 -6.22914,10.59155 -21.17109,34.70633 -1.53285,2.47386 -5.28732,8.54604 -8.34328,13.49375 -5.99028,9.69849 -8.19991,13.26126 -15.62504,25.19373 -2.64597,4.25218 -4.81086,7.80421 -4.81086,7.8934 0,0.3601 0.85365,-0.30184 9.57257,-7.42254 z M 137.77528,192.6023 c 3.09476,-1.01805 6.25481,-2.91488 8.56022,-5.13828 1.09395,-1.05502 2.13944,-1.91822 2.32332,-1.91822 0.42725,0 1.59324,-1.51692 2.61021,-3.3958 1.14568,-2.11667 1.56483,-2.12806 1.32201,-0.0359 -0.19258,1.65925 -0.19258,1.65925 0.56562,1.10961 2.86632,-2.07787 2.85078,-1.58652 0.22448,-7.09618 -1.30718,-2.7423 -2.61929,-5.26973 -2.91581,-5.61652 -0.53913,-0.63051 -0.53913,-0.63051 -2.10749,0.0309 -0.8626,0.36376 -1.60986,0.78585 -1.66057,0.93798 -0.0507,0.15212 0.34002,1.43058 0.86829,2.841 1.24154,3.31482 0.94172,3.67837 -1.01306,1.22841 -1.85954,-2.33059 -3.58523,-3.80777 -5.60222,-4.79547 -1.52322,-0.74591 -4.35876,-1.61214 -5.27721,-1.61214 -0.67537,0 -1.28349,1.72986 -1.08154,3.07655 0.12814,0.85452 -0.032,1.82986 -0.65481,3.98824 -2.51872,8.72863 -3.24578,9.82567 -3.52318,5.316 -0.26315,-4.27804 -0.93105,-9.48635 -1.50773,-11.75739 -1.04783,-4.12653 -4.02832,-9.09008 -5.45836,-9.09008 -0.23034,0 -0.88104,0.46224 -1.446,1.02721 -0.81558,0.81558 -1.02721,1.22491 -1.02721,1.98678 0,1.1917 -2.55398,6.04305 -4.11212,7.81109 -0.58818,0.66741 -1.45383,2.00696 -1.92367,2.97678 -0.97118,2.00466 -1.88161,2.89742 -4.53534,4.44727 -1.02536,0.59885 -1.86429,1.18057 -1.86429,1.29272 0,0.11215 0.44649,0.41665 0.99219,0.67667 2.7119,1.29218 9.47928,6.2778 11.04156,8.13446 0.60327,0.71694 0.70228,1.0421 0.5983,1.9647 -0.12379,1.0982 -0.11737,1.10775 0.96385,1.43473 2.66558,0.80611 4.87219,1.03606 9.15827,0.95441 3.86819,-0.0737 4.60681,-0.1625 6.48229,-0.77947 z m -18.40022,-1.38203 c -0.74222,-0.89433 -8.15136,-4.80221 -11.48054,-6.05531 -2.089,-0.78629 -7.82412,-2.35144 -7.99396,-2.18159 -0.46384,0.46384 7.75733,4.32508 15.38514,7.22596 4.01571,1.52718 4.64742,1.68335 4.08936,1.01094 z m -8.26152,-16.82511 c 0.90813,-0.28049 1.94103,-0.77361 2.29534,-1.09582 1.99108,-1.81069 2.33029,-10.51625 0.66589,-17.0895 -0.76598,-3.02509 -0.91873,-3.27819 -2.56802,-4.25516 -2.38114,-1.41048 -4.31053,-2.9812 -6.74595,-5.49189 -2.89221,-2.98158 -3.20865,-3.37428 -5.32378,-6.60682 -2.00813,-3.06898 -1.59512,-2.86709 -7.16023,-3.50028 -2.64274,-0.30068 -3.8463,-0.76204 -3.8463,-1.47441 0,-0.60799 0.90121,-0.92925 2.6068,-0.92925 1.78217,0 2.42029,-0.17066 2.42029,-0.64729 0,-0.58536 -1.40623,-0.99861 -4.10105,-1.20514 -3.37295,-0.25851 -5.13071,-0.92133 -6.79775,-2.5633 -0.74558,-0.73436 -1.27204,-1.08934 -1.27204,-0.85768 0,0.21737 0.66495,2.1179 1.47768,4.22338 2.37276,6.14702 4.07857,10.85602 4.07857,11.25918 0,0.81144 -1.25716,0.37241 -2.36019,-0.82424 -1.51193,-1.64024 -1.71321,-1.39836 -1.52422,1.83164 0.24501,4.18721 1.3878,7.85059 4.21822,13.522 6.57637,13.17733 14.75222,18.54139 23.93674,15.70458 z m 36.03267,-6.69748 c 1.21535,-0.62848 9.09883,-8.21546 9.37066,-9.01822 0.53911,-1.59211 6.20668,-3.3866 11.6855,-3.69992 7.6274,-0.43619 9.20677,-1.40027 14.18413,-8.65824 2.01986,-2.94536 2.81647,-3.05118 2.44274,-0.3245 -0.20355,1.48503 0.10531,1.50186 1.01899,0.0555 0.39189,-0.62035 1.48586,-2.10947 2.43104,-3.30914 3.66168,-4.64759 5.72008,-8.8053 5.71982,-11.5533 -2e-4,-2.18094 -1.50974,-5.2904 -2.91844,-6.01166 -2.75665,-1.4114 -8.28144,-1.32522 -12.76312,0.1991 -1.03041,0.35047 -2.16964,0.63721 -2.53162,0.63721 -0.41373,0 -1.36093,0.58132 -2.5506,1.56538 -4.2298,3.49877 -13.61376,8.76203 -20.96719,11.76005 -4.7317,1.92913 -5.50693,2.38468 -5.95043,3.49662 -0.32394,0.81217 -0.33372,1.20366 -0.0596,2.38308 0.34715,1.49339 2.10126,5.22717 2.6822,5.70931 0.4685,0.38882 0.4363,1.2793 -0.0462,1.2793 -0.54053,0 -3.05756,-3.4367 -4.21473,-5.75468 -0.84376,-1.69021 -1.04369,-1.91692 -1.68187,-1.90714 -1.17829,0.018 -2.28046,0.78772 -4.34124,3.03162 -8.18698,8.91444 -9.18453,12.42203 -4.65875,16.38108 3.94265,3.44894 10.24404,5.24059 13.14872,3.73852 z m 11.1993,-13.94272 c -0.40258,-0.40257 -0.42348,-2.29546 -0.0518,-4.69097 0.35881,-2.3126 0.0103,-4.52274 -1.08921,-6.90824 -1.24174,-2.694 -0.74324,-3.11581 1.35871,-1.14969 2.15147,2.01245 2.98512,4.06556 3.09825,7.63035 0.0833,2.62654 0.0326,3.02655 -0.51983,4.10104 -0.52909,1.02902 -0.73803,1.20125 -1.53935,1.26887 -0.50995,0.043 -1.0755,-0.0701 -1.25677,-0.25136 z m -28.08632,-0.5734 c 1.19428,-0.62907 1.40644,-0.89515 7.82716,-9.81648 1.24874,-1.73506 2.3717,-3.52147 2.49549,-3.96977 0.31828,-1.15273 2.35078,-2.29138 6.64082,-3.72031 16.62215,-5.53652 17.95635,-6.2473 21.27464,-11.33389 0.96595,-1.4807 2.00012,-2.96008 2.29815,-3.2875 1.60572,-1.7641 1.84224,0.54906 0.4183,4.09094 -0.18791,0.46739 -0.28749,0.90279 -0.22131,0.96755 0.20219,0.19784 3.60585,-0.99698 4.1282,-1.44916 0.26953,-0.23332 2.66664,-1.87995 5.3269,-3.65917 2.66027,-1.77922 4.99603,-3.49302 5.19058,-3.80844 0.19456,-0.31542 0.5035,-1.94271 0.68655,-3.6162 0.33281,-3.04271 0.33281,-3.04271 -1.33089,-5.95313 -2.77791,-4.85961 -2.01829,-4.36562 -6.71319,-4.36562 -4.72777,0 -7.31205,0.29934 -11.65908,1.35051 -3.66624,0.88654 -5.3631,0.98534 -5.61574,0.32697 -0.21909,-0.57095 0.31572,-0.99883 5.93965,-4.752 4.76211,-3.178033 5.57018,-3.946169 6.23223,-5.924244 0.5297,-1.582666 0.35078,-2.30931 -0.96443,-3.916707 -0.60524,-0.739695 -2.02985,-2.487697 -3.1658,-3.884448 -1.13595,-1.396751 -2.32658,-2.648035 -2.64583,-2.780634 -0.31926,-0.132598 -3.5113,-0.422269 -7.09344,-0.643712 -3.58212,-0.221443 -6.70751,-0.477285 -6.94531,-0.568534 -0.33092,-0.126987 -0.43235,-0.523883 -0.43235,-1.691836 0,-3.757568 -2.37978,-6.626921 -5.48722,-6.616065 -2.16488,0.0076 -17.81292,3.61883 -17.99061,4.151889 -0.0573,0.17191 1.03458,1.502577 2.42641,2.957039 2.04878,2.140987 2.53059,2.795741 2.53059,3.438962 0,0.436967 -0.10169,0.857334 -0.22598,0.934148 -0.12429,0.07681 -1.34468,-0.527492 -2.71198,-1.3429 -5.30133,-3.161528 -8.44153,-4.217208 -11.81601,-3.972344 -4.69999,0.341048 -5.82306,2.479064 -4.80436,9.146178 0.30264,1.980692 0.61665,4.345401 0.69781,5.254906 0.14583,1.634416 0.13971,1.653646 -0.52662,1.653646 -0.7877,0 -1.67924,-0.955297 -2.41502,-2.587736 -0.27677,-0.614037 -0.64729,-1.116431 -0.82339,-1.116431 -0.37731,0 -4.14342,5.267682 -3.96848,5.550742 0.0657,0.106293 0.83078,0.45263 1.7002,0.769638 2.83311,1.033003 4.66995,2.708883 7.36711,6.721533 1.41607,2.10673 1.7167,2.14268 2.83204,0.33866 0.6824,-1.10376 0.80405,-1.56387 0.80405,-3.04107 0,-1.94088 -0.0885,-2.13023 -2.60697,-5.577008 -1.06487,-1.457378 -1.56078,-2.38765 -1.5875,-2.977962 -0.0439,-0.970079 -0.55121,-0.901724 4.17252,-0.562227 3.74046,0.26883 6.16709,-0.296341 13.78029,-3.209464 3.37576,-1.291707 5.69407,-1.948511 13.69117,-3.878858 0.7654,-0.184754 1.23417,-0.568183 2.05796,-1.683311 1.21901,-1.650106 2.26445,-2.456469 2.66521,-2.05571 0.33208,0.332089 -0.59402,3.960374 -1.43864,5.636287 -0.78998,1.567484 -1.60827,1.992786 -7.583,3.941186 -7.50449,2.447269 -14.12366,5.467244 -16.65906,7.600647 -1.9924,1.67649 -2.40683,4.14914 -1.01926,6.0813 1.26162,1.75677 5.27002,4.60187 6.48348,4.60187 1.29994,0 3.2833,1.91433 2.64484,2.55279 -0.49409,0.49408 -6.03814,-0.34162 -7.58747,-1.14373 -2.26588,-1.17307 -7.41044,-0.75958 -7.41044,0.59561 0,0.94156 6.59656,12.82225 7.56613,13.62692 0.46193,0.38337 1.47729,-0.46955 2.67695,-2.2487 0.40044,-0.59387 1.17659,-1.69976 1.72479,-2.45753 0.54819,-0.75777 0.99671,-1.47613 0.99671,-1.59637 0,-0.12023 -0.98077,-0.51297 -2.17949,-0.87274 -1.44712,-0.43433 -2.20727,-0.7984 -2.26217,-1.08347 -0.0704,-0.36586 0.29052,-0.44566 2.44155,-0.53974 1.94455,-0.085 2.60075,-0.2108 2.85748,-0.54762 0.18329,-0.24048 1.00546,-0.68543 1.82705,-0.98877 4.65592,-1.71907 9.5283,-6.65646 13.45153,-13.63102 2.00395,-3.562546 2.79449,-4.630216 3.42838,-4.630216 1.1519,0 1.07214,1.848861 -0.24974,5.788926 -1.24815,3.72027 -1.26541,3.91766 -0.37787,4.32205 0.84487,0.38495 4.50464,-0.0311 7.65391,-0.87015 3.46008,-0.92183 4.16954,-1.02405 5.21435,-0.75129 1.85542,0.48437 1.60228,1.04685 -0.71413,1.58682 -0.72887,0.1699 -2.96518,1.12947 -4.96957,2.13238 -2.00439,1.0029 -4.85912,2.30743 -6.34385,2.89894 -1.48472,0.59151 -4.44941,1.96185 -6.58821,3.04519 -4.36904,2.213 -5.71517,3.39685 -7.36137,6.47392 -1.74918,3.26955 -1.3198,8.45785 1.06744,12.89822 0.57322,1.0662 1.04221,2.108 1.04221,2.31511 0,0.72469 -0.75814,0.36597 -1.86031,-0.88022 -2.25543,-2.55014 -3.90813,-5.35503 -5.02773,-8.53281 -0.33325,-0.94588 -0.69422,-1.8214 -0.80214,-1.94559 -0.10792,-0.1242 -1.04116,0.8983 -2.07385,2.27221 -1.87764,2.49802 -1.87764,2.49802 -1.87764,4.27461 0,4.76729 -1.50827,8.00327 -5.74794,12.3321 -1.63902,1.67349 -2.98077,3.22761 -2.98167,3.4536 -0.003,0.65085 1.52044,2.54822 2.56238,3.19218 3.02893,1.87198 5.94911,2.31004 8.04385,1.20666 z m 55.34915,0.17817 c 1.22569,-0.63383 3.057,-2.21938 3.62187,-3.13582 0.56575,-0.91787 0.93373,-2.99919 0.6746,-3.81564 -0.16847,-0.53081 -0.24369,-0.50266 -1.41519,0.52963 -1.4479,1.27585 -2.46405,1.84495 -3.42623,1.9189 -0.60385,0.0464 -0.75336,0.25614 -1.16646,1.63622 -0.91958,3.07213 -0.39265,3.95476 1.71141,2.86671 z m -67.76186,-10.04749 c 1.86825,-0.99196 5.76511,-4.88562 6.5875,-6.58208 0.89068,-1.83735 0.91258,-5.28643 0.044,-6.92736 -0.91758,-1.73344 -1.07564,-1.59511 -0.92558,0.81013 0.12331,1.97651 0.0664,2.3684 -0.5349,3.68178 -1.524,3.32884 -4.45468,5.35209 -7.73177,5.33777 -1.62338,-0.007 -2.13122,-0.14365 -4.11256,-1.10593 -1.24326,-0.6038 -2.6013,-1.43361 -3.01787,-1.84399 -0.9192,-0.90556 -2.80057,-4.80439 -2.98621,-6.18843 -0.13343,-0.9948 -0.12586,-1.00437 1.02236,-1.29258 2.2892,-0.57461 4.76794,-1.67128 6.25985,-2.76957 1.50446,-1.10751 5.79292,-5.59969 5.69305,-5.96349 -0.13076,-0.47635 -2.01586,-3.44978 -2.18708,-3.44978 -0.10596,0 -0.40815,0.23812 -0.67154,0.52917 -0.26339,0.29104 -0.71378,0.52915 -1.00087,0.52915 -0.47313,0 -0.50084,-0.10522 -0.29609,-1.12447 0.43304,-2.1557 0.28594,-4.20334 -0.40244,-5.602 -1.30514,-2.6518 -5.43353,-5.96868 -7.42873,-5.96846 -3.13153,2.6e-4 -9.98726,5.7691 -13.85769,11.66054 -2.12347,3.23228 -2.91436,4.15525 -3.18517,3.71705 -0.0891,-0.14422 0.0309,-0.83659 0.26678,-1.53859 1.40536,-4.1827 3.87946,-7.79617 8.19228,-11.96499 1.84086,-1.77941 3.2883,-3.29402 3.21651,-3.3658 -0.2602,-0.26021 -7.51393,-2.1757 -9.41701,-2.48676 -5.10772,-0.83484 -7.97117,1.01336 -11.15594,7.20054 -2.27648,4.42263 -4.32117,11.42823 -3.86545,13.24396 0.20581,0.82003 3.41193,4.36967 3.55611,3.93713 0.0524,-0.15719 -0.14516,-0.97356 -0.439,-1.81416 -0.67133,-1.92042 -1.62183,-5.6719 -1.62183,-6.40108 0,-0.30318 0.16618,-0.55123 0.36929,-0.55123 0.37316,0 0.99146,0.9028 3.06685,4.47803 1.50941,2.60023 2.98916,4.05738 4.56971,4.4999 0.68285,0.19119 1.47687,0.28607 1.7645,0.21085 0.81433,-0.21295 4.72122,0.5426 6.71513,1.29864 0.99061,0.37562 1.85392,0.63012 1.91846,0.56557 0.0645,-0.0645 -0.23857,-1.29795 -0.67361,-2.7409 -1.0215,-3.38821 -1.03049,-3.87619 -0.0694,-3.7656 0.54337,0.0625 0.86447,0.3517 1.26811,1.14205 4.90369,9.60167 7.615,13.8862 11.11432,17.56339 3.87054,4.06728 6.50714,4.87277 9.95596,3.0416 z M 96.54438,118.6944 c -1.34942,-1.34941 4.93062,-9.03866 8.9948,-11.01319 2.03287,-0.98765 2.23094,0.21536 0.23575,1.43188 -1.84041,1.12214 -6.39222,6.30835 -6.87032,7.82784 -0.17823,0.56648 -1.57963,1.92986 -1.98365,1.92986 -0.11011,0 -0.27957,-0.0794 -0.37658,-0.17639 z m 22.2952,17.5499 c 1.93681,-1.2817 3.22695,-5.2753 2.38549,-7.38415 -0.35764,-0.8963 -2.86291,-4.69769 -3.09597,-4.69769 -0.0733,0 -0.92281,0.74414 -1.88785,1.65365 -2.19555,2.06918 -4.26824,3.45268 -6.27735,4.1901 -2.07665,0.76219 -2.05998,0.73297 -1.40966,2.4711 0.92655,2.47643 2.46173,3.75008 5.40854,4.48717 1.3199,0.33014 3.85548,-0.0443 4.8768,-0.72018 z M 105.77424,88.654283 c 0.87831,-1.222553 1.01479,-1.630421 1.21733,-3.638021 0.12546,-1.243605 0.41536,-2.826465 0.64423,-3.517466 0.96019,-2.899067 4.04061,-5.869089 7.86858,-7.586584 0.97113,-0.435716 1.76569,-0.935553 1.76569,-1.11075 0,-0.754629 -13.92274,-18.169891 -15.11524,-18.906893 -0.75936,-0.469315 -0.84181,0.448138 -0.37115,4.130318 0.31907,2.496177 0.38893,3.817951 0.21119,3.995685 -0.3183,0.318299 -1.03392,-0.481407 -8.29124,-9.265489 -8.21512,-9.943381 -15.23405,-17.757215 -15.95076,-17.757215 -0.30474,0 -0.0502,2.094754 0.4823,3.96875 0.64659,2.275581 0.82059,4.233725 0.37602,4.231476 -0.20194,-0.0011 -2.23535,-2.11438 -4.51871,-4.696354 C 67.813,31.401011 58.77964,22.870005 50.06591,15.811303 48.10138,14.219903 44.89197,11.545775 42.93389,9.868795 40.97581,8.191816 38.94224,6.462555 38.41485,6.025992 37.88745,5.58943 35.63538,3.709819 33.41023,1.849078 26.41385,-4.001529 26.13407,-3.73211 31.68295,3.51245 c 7.97078,10.406579 12.40641,16.545704 17.34523,24.00661 2.45704,3.711766 3.1149,4.442889 2.77341,3.082317 -0.73522,-2.929356 -0.43922,-2.89437 1.87573,0.221694 0.9969,1.341882 2.52692,3.289168 3.40005,4.327303 0.87312,1.038135 2.65657,3.244215 3.96321,4.902401 5.76005,7.309769 10.24605,12.672177 10.6011,12.672177 0.52017,0 0.5036,-0.125725 -0.42686,-3.238386 -1.20097,-4.017603 -1.20229,-3.906296 0.0305,-2.582447 2.50646,2.691627 9.23559,11.171417 12.28265,15.478125 3.40264,4.809295 2.93085,4.174318 6.9091,9.298972 4.16047,5.359406 8.1816,10.717906 11.33796,15.108842 1.28142,1.78263 2.48288,3.241146 2.66992,3.241146 0.18704,0 0.78522,-0.619615 1.32929,-1.376921 z M 62.76591,186.95691 c 0,-0.19403 0.17859,-0.35278 0.39687,-0.35278 0.21828,0 0.39688,0.15875 0.39688,0.35278 0,0.19403 -0.1786,0.35278 -0.39688,0.35278 -0.21828,0 -0.39687,-0.15875 -0.39687,-0.35278 z M 90.76213,39.050462 c 0.191,-0.07643 0.4192,-0.06703 0.50712,0.02088 0.0879,0.08792 -0.0684,0.150452 -0.34726,0.138964 -0.30823,-0.0127 -0.37092,-0.07539 -0.15986,-0.159851 z"
       id="path859" />
  </g>
</svg>
